<svg width="60" height="39" viewBox="0 0 60 39" fill="none" xmlns="http://www.w3.org/2000/svg">
<path d="M0 38.7108V17.5192H3.33605V19.6162C4.47982 18.0914 6.25887 17.1382 8.26063 17.1382C12.232 17.1382 15.0595 20.1247 15.0595 25.1761C15.0595 30.2275 12.232 33.2462 8.26063 33.2462C6.32259 33.2462 4.57508 32.3882 3.33605 30.7366V38.7108H0ZM7.27584 20.0932C5.71885 20.0932 4.06724 21.0143 3.33605 22.158V28.2264C4.06659 29.338 5.71885 30.2912 7.27584 30.2912C9.91289 30.2912 11.5967 28.1627 11.5967 25.1761C11.5967 22.1896 9.91289 20.0925 7.27584 20.0925V20.0932Z" fill="#00B4BA"/>
<path d="M21.7638 17.5195H18.4277V32.8648H21.7638V17.5195Z" fill="#00B4BA"/>
<path d="M26.084 38.7108V17.5192H29.42V19.6162C30.5638 18.0914 32.3429 17.1382 34.3446 17.1382C38.316 17.1382 41.1435 20.1247 41.1435 25.1761C41.1435 30.2275 38.316 33.2462 34.3446 33.2462C32.4066 33.2462 30.6591 32.3882 29.42 30.7366V38.7108H26.084ZM33.3598 20.0932C31.8028 20.0932 30.1512 21.0143 29.42 22.158V28.2264C30.1506 29.338 31.8028 30.2912 33.3598 30.2912C35.9969 30.2912 37.6807 28.1627 37.6807 25.1761C37.6807 22.1896 35.9969 20.0925 33.3598 20.0925V20.0932Z" fill="#00B4BA"/>
<path d="M47.8478 17.5195H44.5117V32.8648H47.8478V17.5195Z" fill="#00B4BA"/>
<path d="M52.8367 29.3068V20.4424H50.2949V17.5196H52.8367V13.3262H56.1728V17.5196H59.2861V20.4424H56.1728V28.4803C56.1728 29.5288 56.6812 30.2915 57.6345 30.2915C58.2698 30.2915 58.8735 30.0373 59.1278 29.7515L59.922 32.2618C59.3183 32.8333 58.3335 33.2466 56.7765 33.2466C54.2032 33.2466 52.8367 31.8485 52.8367 29.3068Z" fill="#00B4BA"/>
<path d="M8.41016 6.18164L22.9728 5.30796L9.57712 13.3984L12.1262 8.22572L8.41016 6.18164Z" fill="#00B4BA"/>
<path d="M54.5624 3.06791C56.6301 3.0768 58.187 4.98544 57.7415 6.99782C57.373 8.66047 56.39 10.007 55.4179 11.3525C55.2697 11.558 55.1166 11.7615 54.9516 11.9532C54.6987 12.2476 54.4023 12.2812 54.1593 11.969C52.9847 10.4565 51.8022 8.93709 51.3576 7.02054C50.8844 4.98347 52.468 3.05902 54.5634 3.06692H54.5624V3.06791ZM54.5495 7.51746C55.1739 7.51449 55.6995 6.99782 55.7133 6.37346C55.7281 5.72638 55.1877 5.17808 54.5407 5.18105C53.9153 5.18401 53.3907 5.6997 53.3769 6.32406C53.3631 6.97114 53.9025 7.51943 54.5495 7.51746Z" fill="#00B4BA"/>
<path d="M23.8532 4.95374L23.541 4.71566C23.6714 4.54475 23.8038 4.38273 23.9451 4.21973L24.2414 4.47658C24.1061 4.63366 23.9787 4.78975 23.8532 4.95374Z" fill="#00B4BA"/>
<path d="M24.8772 3.80406L24.6035 3.52349C24.9117 3.22317 25.2358 2.94062 25.5667 2.68476L25.8068 2.99496C25.4867 3.24194 25.1745 3.5146 24.8772 3.80406ZM26.5625 2.46445L26.3521 2.13251C26.7186 1.90035 27.097 1.69487 27.4783 1.521L27.6413 1.87862C27.2768 2.04459 26.9133 2.24217 26.5625 2.46445Z" fill="#00B4BA"/>
<path d="M37.2672 8.45912L37.2297 8.0689C37.6258 8.03136 38.0378 7.9296 38.3885 7.78438L38.5387 8.14694C38.1524 8.30699 37.7009 8.41862 37.2662 8.46011H37.2672V8.45912ZM36.2803 8.42751C35.8209 8.35836 35.3862 8.22499 35.0247 8.04124L35.2025 7.69152C35.5226 7.85354 35.9266 7.97801 36.3386 8.03926L36.2803 8.42751ZM39.3942 7.59865L39.1126 7.325C39.2282 7.20547 39.3063 7.07901 39.3438 6.94663C39.3655 6.87254 39.3754 6.79054 39.3754 6.70262C39.3754 6.59395 39.3586 6.47441 39.327 6.34697L39.7074 6.25114C39.7469 6.40921 39.7676 6.56036 39.7676 6.70163C39.7676 6.82611 39.7518 6.94564 39.7202 7.05432C39.6639 7.24893 39.5542 7.4317 39.3932 7.59767L39.3942 7.59865ZM34.2294 7.38526C34.1602 7.28055 34.1079 7.1699 34.0743 7.05629C34.0417 6.94565 34.0249 6.82512 34.0249 6.69768C34.0249 6.48725 34.0693 6.25411 34.1583 6.00614L34.5277 6.13753C34.4546 6.34401 34.4171 6.53171 34.4171 6.69768C34.4171 6.78758 34.428 6.87155 34.4497 6.94564C34.4724 7.02171 34.508 7.09581 34.5554 7.16792L34.2284 7.38526H34.2294ZM38.9743 5.54083C38.7856 5.2247 38.5406 4.89771 38.2443 4.56873L38.5357 4.30595C38.8489 4.65468 39.1097 5.00242 39.3112 5.34029L38.9743 5.54182V5.54083ZM34.9367 5.34424L34.6087 5.12888C34.8261 4.79694 35.0978 4.45808 35.4139 4.12219L35.6994 4.39189C35.3981 4.71099 35.1412 5.03206 34.9367 5.34424ZM37.5922 3.91572C37.369 3.7132 37.1319 3.51661 36.8839 3.32791C36.7051 3.46523 36.5322 3.60749 36.3662 3.75272L36.1084 3.45733C36.3327 3.26172 36.5688 3.07106 36.8138 2.89027L36.8612 2.82408C36.8681 2.82902 36.875 2.83396 36.8829 2.83989C36.96 2.78358 37.038 2.72825 37.117 2.67392L37.3403 2.99696C37.2978 3.0266 37.2544 3.05624 37.2129 3.08686C37.4371 3.26074 37.6535 3.44152 37.857 3.62725L37.5932 3.9177V3.91572H37.5922ZM49.1113 3.80508C48.8129 3.51562 48.4998 3.24394 48.1807 2.99499L48.4217 2.68478C48.7527 2.94164 49.0767 3.2232 49.3849 3.52253L49.1113 3.80409V3.80508ZM35.8575 2.6344C35.5038 2.422 35.1363 2.22837 34.7668 2.05845L34.9308 1.70181C35.3141 1.87766 35.6935 2.07821 36.06 2.29851L35.8575 2.6344ZM38.1208 2.49906L37.9242 2.15922C38.2946 1.94484 38.677 1.75022 39.0622 1.5803L39.2203 1.93891C38.8489 2.1029 38.4784 2.2916 38.1208 2.49906ZM47.4259 2.46152C47.0752 2.23726 46.7136 2.03671 46.3501 1.86679L46.516 1.51115C46.8944 1.68798 47.2718 1.89643 47.6373 2.13057L47.4259 2.46152ZM33.9103 1.70774C33.5191 1.56746 33.1209 1.45286 32.7287 1.36592L32.8137 0.982613C33.2227 1.07251 33.6356 1.19304 34.0427 1.33826L33.9103 1.70774ZM40.0808 1.60203L39.9543 1.23058C40.3633 1.09128 40.7782 0.977674 41.1882 0.894689L41.2663 1.27899C40.8731 1.35901 40.474 1.46768 40.0808 1.60203ZM28.4955 1.54375L28.373 1.17032C28.782 1.03695 29.2019 0.934205 29.6218 0.868015L29.684 1.25528C29.2849 1.31949 28.8848 1.41631 28.4955 1.54375ZM45.4975 1.523C45.1083 1.39062 44.7091 1.28788 44.312 1.21774L44.3802 0.831463C44.7971 0.904568 45.215 1.01225 45.624 1.15155L45.4975 1.523ZM31.8209 1.21378C31.4089 1.16735 31.0029 1.15155 30.5968 1.16636L30.582 0.774164C31.0068 0.758357 31.4336 0.774164 31.8653 0.823559L31.8209 1.21378ZM42.1771 1.14167L42.1386 0.751442C42.4162 0.724768 42.6958 0.710938 42.9694 0.710938H42.9744C43.1245 0.710938 43.2757 0.714889 43.4229 0.722792L43.4011 1.11499C43.2609 1.10709 43.1166 1.10314 42.9734 1.10314H42.9694C42.7086 1.10314 42.4429 1.11598 42.1771 1.14265V1.14167Z" fill="#00B4BA"/>
<path d="M50.1461 4.95521C50.0187 4.7922 49.8902 4.6371 49.7539 4.48002L50.0493 4.22119C50.1916 4.38321 50.3239 4.54424 50.4563 4.71317L50.1471 4.95422H50.1461V4.95521Z" fill="#00B4BA"/>
</svg>
