<svg width="316" height="316" viewBox="0 0 316 316" fill="none" xmlns="http://www.w3.org/2000/svg">
<line x1="83" y1="109.5" x2="233" y2="109.5" stroke="url(#paint0_linear_139_5064)"/>
<line x1="83" y1="133.5" x2="233" y2="133.5" stroke="url(#paint1_linear_139_5064)"/>
<line x1="83" y1="157.5" x2="233" y2="157.5" stroke="#EEEFF9"/>
<line x1="83" y1="181.5" x2="233" y2="181.5" stroke="url(#paint2_linear_139_5064)"/>
<line x1="83" y1="205.5" x2="233" y2="205.5" stroke="url(#paint3_linear_139_5064)"/>
<line x1="110.5" y1="83" x2="110.5" y2="233" stroke="url(#paint4_linear_139_5064)"/>
<line x1="134.5" y1="83" x2="134.5" y2="233" stroke="url(#paint5_linear_139_5064)"/>
<line x1="158.5" y1="83" x2="158.5" y2="233" stroke="url(#paint6_linear_139_5064)"/>
<line x1="182.5" y1="83" x2="182.5" y2="233" stroke="url(#paint7_linear_139_5064)"/>
<line x1="206.5" y1="83" x2="206.5" y2="233" stroke="url(#paint8_linear_139_5064)"/>
<g filter="url(#filter0_f_139_5064)">
<circle cx="158" cy="158" r="54" fill="#CCF0F1" fill-opacity="0.5"/>
</g>
<g clip-path="url(#clip0_139_5064)">
<path d="M164.848 138.824H166.072L166.616 139.368V149.568L167.296 149.704L168.928 150.384L169.608 151.2L169.744 151.608V160.04H177.632V158L178.176 157.456H179.4L179.944 158V166.432H183.344L184.16 166.976L184.704 167.792V185.472L185.52 185.608L186.064 185.88L186.744 186.832V190.776L186.2 191.592L185.52 192H130.576L129.76 191.456L129.352 190.776V186.832L130.032 185.88L130.984 185.472H131.392V167.792L131.936 166.976L132.752 166.432H136.152V151.608L136.696 151.064H137.92L138.464 151.608V153.648H146.352V143.856L147.032 142.768L148.12 142.36L149.344 142.496L152.336 143.72L155.736 145.08L155.872 142.496L156.416 141.952H157.64L158.048 142.496V146.168L159.272 146.576L159.952 146.848L160.088 141L160.632 140.456H161.856L162.4 141V147.8L163.624 148.208L164.304 148.48V139.368L164.848 138.824ZM148.528 144.944V153.648L154.104 153.784L154.92 154.328L155.328 155.008L155.464 179.08L164.032 179.216L165.12 179.76L165.664 180.576L165.8 185.472H167.568V152.424L166.752 152.016L165.392 151.608L161.448 149.976L158.32 148.752L156.824 148.072L152.744 146.44L150.432 145.624L148.8 144.944H148.528ZM138.464 155.96V185.472H140.504L140.64 176.224L141.184 175.408L141.728 175.136H149.888L150.568 175.272L150.84 175.816L151.112 176.224L151.248 185.472H153.152V155.96H138.464ZM169.744 162.352V164.256L175.048 164.392L175.456 164.8V166.024L175.048 166.432L169.744 166.568V168.608L175.048 168.744L175.456 169.152V170.24L175.048 170.648L169.744 170.784V172.824L175.048 172.96L175.456 173.368V174.592L175.048 174.864L169.744 175V177.04L174.368 177.176L175.184 177.856L175.456 178.4L175.592 185.472H177.632V162.352H169.744ZM133.704 168.744V185.472H136.152V168.744H133.704ZM179.944 168.744V185.472H182.392V168.744H179.944ZM142.68 177.176V185.472H148.936V177.176H142.68ZM169.744 179.352V185.472H173.416V179.352H169.744ZM155.464 181.392V185.472H163.624V181.392H155.464ZM131.528 187.784V189.688H184.432V187.784H131.528Z" fill="#00B4BA"/>
<path d="M178.447 130.12L180.351 130.256L182.391 130.8L184.431 131.888L186.063 133.384L187.287 135.288L187.967 136.648L188.375 138.28V141.544L187.967 143.176L186.879 145.352L185.791 146.712L184.567 147.8L182.663 148.888L181.031 149.432L180.351 149.568H177.087L175.455 149.16L173.415 148.072L172.055 146.984L171.239 146.304L170.695 145.488L169.879 144.128L169.471 142.768L169.199 141.544V138.28L169.743 136.104L170.695 134.336L172.191 132.704L173.551 131.616L175.591 130.664L177.087 130.256L178.447 130.12ZM178.719 132.568L176.815 132.84L175.183 133.52L173.959 134.336L173.279 135.016L172.327 136.376L171.647 138.008L171.511 138.688V141.272L172.191 143.176L172.735 143.856L174.231 142.36L175.319 141.68L175.047 141L174.639 140.048V137.736L175.183 136.376L175.727 135.696L177.087 134.88L178.175 134.608H179.263L180.351 134.88L181.983 135.832L182.799 137.192L182.935 137.736V140.048L182.255 141.408L182.119 141.68L183.479 142.496L184.839 143.856L185.383 143.176L185.927 141.68L186.063 140.864V138.96L185.655 137.328L184.839 135.696L184.295 135.016L182.527 133.656L180.759 132.84L178.719 132.568ZM178.175 136.92L177.359 137.464L176.815 138.28V139.504L177.359 140.32L178.175 140.864H179.399L180.215 140.32L180.623 139.776L180.759 139.368V138.416L180.351 137.6L179.671 137.056L179.399 136.92H178.175ZM177.767 143.312L176.271 143.856L175.183 144.672L174.367 145.624L174.503 145.896H174.775V146.168L176.407 146.984L178.991 147.256L181.031 146.984L182.663 146.168L183.071 145.896L182.799 145.216L181.847 144.264L180.759 143.584L179.807 143.312H177.767Z" fill="#00B4BA"/>
<path d="M135.607 124H139.007L140.911 124.408L142.951 125.496L144.583 126.992L145.671 128.352L146.351 129.712L146.895 131.888V135.152L146.351 137.464L145.535 138.96L144.447 140.32L142.951 141.544L140.639 142.768L139.007 143.176H135.607L133.431 142.496L131.935 141.68L130.575 140.592L129.487 139.368L128.399 137.464L127.855 135.832L127.719 135.152V131.888L128.127 130.256L129.351 127.944L130.439 126.584L131.527 125.632L133.431 124.544L134.111 124.272L135.607 124ZM136.967 126.176L135.335 126.448L133.159 127.536L131.663 128.896L130.847 129.984L130.167 131.616L130.031 132.296V134.88L130.711 136.784L131.255 137.464L132.751 135.968L133.975 135.288L133.431 134.472L133.159 133.656V131.344L133.567 129.984H133.839L134.519 129.168L136.015 128.352L136.831 128.216H137.919L139.279 128.624L140.503 129.44L140.775 129.984H141.047L141.455 131.344V133.656L140.911 134.88L140.775 135.424L141.863 135.968L143.359 137.464L143.767 137.056L144.447 135.424L144.583 134.88V132.296L144.039 130.528L143.359 129.304L142.951 128.896L142.271 128.216L140.911 127.128L139.279 126.448L137.647 126.176H136.967ZM136.695 130.528L135.879 131.072L135.335 131.888V133.112L135.879 133.928L136.695 134.472H137.919L138.735 133.928L139.279 133.112V131.888L138.735 131.072L137.919 130.528H136.695ZM136.287 136.92L135.063 137.328L133.839 138.28L133.023 139.232V139.504L134.383 140.32L136.015 140.864L137.375 141L139.279 140.728L140.911 140.048L141.591 139.504L141.319 138.688L140.095 137.6L138.871 137.056L138.327 136.92H136.287Z" fill="#00B4BA"/>
<path d="M178.175 151.064H179.399L179.943 151.608V155.416L179.399 155.96H178.175L177.631 155.416V151.608L178.175 151.064Z" fill="#00B4BA"/>
<path d="M136.694 144.672H137.918L138.462 145.216V149.024L137.918 149.568H136.694L136.15 149.024V145.216L136.694 144.672Z" fill="#00B4BA"/>
<path d="M147.303 166.432H150.703L151.247 166.976V168.2L150.703 168.744H147.439L146.895 168.2V166.976L147.303 166.432Z" fill="#00B4BA"/>
<path d="M141.046 166.432H144.31L144.854 166.976V168.2L144.31 168.744H141.046L140.502 168.2V166.976L141.046 166.432Z" fill="#00B4BA"/>
<path d="M147.439 170.648H150.703L151.247 171.192V172.416L150.703 172.96H147.303L146.895 172.416V171.192L147.439 170.648Z" fill="#00B4BA"/>
<path d="M141.046 170.648H144.31L144.854 171.192V172.416L144.31 172.96H141.046L140.502 172.416V171.192L141.046 170.648Z" fill="#00B4BA"/>
<path d="M147.303 158H150.703L151.247 158.544V159.632L150.703 160.176H147.303L146.895 159.632V158.408L147.303 158Z" fill="#00B4BA"/>
<path d="M147.303 162.216H150.703L151.247 162.76V163.848L150.703 164.392H147.303L147.031 164.256L146.895 163.848V162.76L147.303 162.216Z" fill="#00B4BA"/>
<path d="M141.046 158H144.31L144.854 158.408V159.632L144.31 160.176H141.046L140.502 159.632V158.408L141.046 158Z" fill="#00B4BA"/>
<path d="M141.046 162.216H144.31L144.854 162.76V163.848L144.31 164.392H141.046L140.502 163.848V162.76L141.046 162.216Z" fill="#00B4BA"/>
<path d="M162.808 170.648H165.256L165.8 171.192V172.416L165.256 172.96H162.808L162.264 172.416V171.192L162.808 170.648Z" fill="#00B4BA"/>
<path d="M162.808 166.432H165.256L165.8 166.976V168.2L165.256 168.744H162.808L162.264 168.2V166.976L162.808 166.432Z" fill="#00B4BA"/>
<path d="M157.774 166.432H160.222L160.766 166.976V168.2L160.222 168.744H157.774L157.23 168.2V166.976L157.774 166.432Z" fill="#00B4BA"/>
<path d="M162.808 153.648H165.256L165.8 154.192V155.416L165.256 155.96H162.808L162.264 155.416V154.192L162.808 153.648Z" fill="#00B4BA"/>
<path d="M157.774 170.648H160.222L160.766 171.192V172.416L160.222 172.96H157.774L157.23 172.416V171.192L157.774 170.648Z" fill="#00B4BA"/>
<path d="M157.774 153.648H160.222L160.766 154.192V155.416L160.222 155.96H157.774L157.23 155.416V154.192L157.774 153.648Z" fill="#00B4BA"/>
<path d="M162.808 175H165.256L165.8 175.408V176.632L165.256 177.176H162.808L162.264 176.632V175.408L162.808 175Z" fill="#00B4BA"/>
<path d="M157.774 175H160.222L160.766 175.408V176.632L160.222 177.176H157.774L157.23 176.632V175.408L157.774 175Z" fill="#00B4BA"/>
<path d="M162.808 158H165.256L165.8 158.408V159.632L165.256 160.176H162.808L162.264 159.632V158.408L162.808 158Z" fill="#00B4BA"/>
<path d="M157.774 158H160.222L160.766 158.408V159.632L160.222 160.176H157.774L157.23 159.632V158.408L157.774 158Z" fill="#00B4BA"/>
<path d="M162.808 162.216H165.256L165.8 162.76V163.848L165.256 164.392H162.808L162.264 163.848V162.76L162.808 162.216Z" fill="#00B4BA"/>
<path d="M157.774 162.216H160.222L160.766 162.76V163.848L160.222 164.392H157.774L157.23 163.848V162.76L157.774 162.216Z" fill="#00B4BA"/>
</g>
<defs>
<filter id="filter0_f_139_5064" x="0" y="0" width="316" height="316" filterUnits="userSpaceOnUse" color-interpolation-filters="sRGB">
<feFlood flood-opacity="0" result="BackgroundImageFix"/>
<feBlend mode="normal" in="SourceGraphic" in2="BackgroundImageFix" result="shape"/>
<feGaussianBlur stdDeviation="52" result="effect1_foregroundBlur_139_5064"/>
</filter>
<linearGradient id="paint0_linear_139_5064" x1="83" y1="110" x2="241" y2="110" gradientUnits="userSpaceOnUse">
<stop stop-color="#EEEFF9" stop-opacity="0"/>
<stop offset="0.498348" stop-color="#EEEFF9"/>
<stop offset="1" stop-color="#EEEFF9" stop-opacity="0"/>
</linearGradient>
<linearGradient id="paint1_linear_139_5064" x1="83" y1="134" x2="241" y2="134" gradientUnits="userSpaceOnUse">
<stop stop-color="#EEEFF9" stop-opacity="0"/>
<stop offset="0.498348" stop-color="#EEEFF9"/>
<stop offset="1" stop-color="#EEEFF9" stop-opacity="0"/>
</linearGradient>
<linearGradient id="paint2_linear_139_5064" x1="83" y1="182" x2="241" y2="182" gradientUnits="userSpaceOnUse">
<stop stop-color="#EEEFF9" stop-opacity="0"/>
<stop offset="0.498348" stop-color="#EEEFF9"/>
<stop offset="1" stop-color="#EEEFF9" stop-opacity="0"/>
</linearGradient>
<linearGradient id="paint3_linear_139_5064" x1="83" y1="206" x2="241" y2="206" gradientUnits="userSpaceOnUse">
<stop stop-color="#EEEFF9" stop-opacity="0"/>
<stop offset="0.498348" stop-color="#EEEFF9"/>
<stop offset="1" stop-color="#EEEFF9" stop-opacity="0"/>
</linearGradient>
<linearGradient id="paint4_linear_139_5064" x1="110" y1="83" x2="110" y2="241" gradientUnits="userSpaceOnUse">
<stop stop-color="#EEEFF9" stop-opacity="0"/>
<stop offset="0.498348" stop-color="#EEEFF9"/>
<stop offset="1" stop-color="#EEEFF9" stop-opacity="0"/>
</linearGradient>
<linearGradient id="paint5_linear_139_5064" x1="134" y1="83" x2="134" y2="241" gradientUnits="userSpaceOnUse">
<stop stop-color="#EEEFF9" stop-opacity="0"/>
<stop offset="0.498348" stop-color="#EEEFF9"/>
<stop offset="1" stop-color="#EEEFF9" stop-opacity="0"/>
</linearGradient>
<linearGradient id="paint6_linear_139_5064" x1="158" y1="158" x2="157" y2="158" gradientUnits="userSpaceOnUse">
<stop stop-color="#EEEFF9"/>
<stop offset="1" stop-color="#8D8D93"/>
</linearGradient>
<linearGradient id="paint7_linear_139_5064" x1="182" y1="83" x2="182" y2="241" gradientUnits="userSpaceOnUse">
<stop stop-color="#EEEFF9" stop-opacity="0"/>
<stop offset="0.498348" stop-color="#EEEFF9"/>
<stop offset="1" stop-color="#EEEFF9" stop-opacity="0"/>
</linearGradient>
<linearGradient id="paint8_linear_139_5064" x1="206" y1="83" x2="206" y2="241" gradientUnits="userSpaceOnUse">
<stop stop-color="#EEEFF9" stop-opacity="0"/>
<stop offset="0.498348" stop-color="#EEEFF9"/>
<stop offset="1" stop-color="#EEEFF9" stop-opacity="0"/>
</linearGradient>
<clipPath id="clip0_139_5064">
<rect width="68" height="68" fill="white" transform="translate(124 124)"/>
</clipPath>
</defs>
</svg>
