<svg width="316" height="316" viewBox="0 0 316 316" fill="none" xmlns="http://www.w3.org/2000/svg">
<line x1="83" y1="109.5" x2="233" y2="109.5" stroke="url(#paint0_linear_187_5872)"/>
<line x1="83" y1="133.5" x2="233" y2="133.5" stroke="url(#paint1_linear_187_5872)"/>
<line x1="83" y1="157.5" x2="233" y2="157.5" stroke="#EEEFF9"/>
<line x1="83" y1="181.5" x2="233" y2="181.5" stroke="url(#paint2_linear_187_5872)"/>
<line x1="83" y1="205.5" x2="233" y2="205.5" stroke="url(#paint3_linear_187_5872)"/>
<line x1="110.5" y1="83" x2="110.5" y2="233" stroke="url(#paint4_linear_187_5872)"/>
<line x1="134.5" y1="83" x2="134.5" y2="233" stroke="url(#paint5_linear_187_5872)"/>
<line x1="158.5" y1="83" x2="158.5" y2="233" stroke="url(#paint6_linear_187_5872)"/>
<line x1="182.5" y1="83" x2="182.5" y2="233" stroke="url(#paint7_linear_187_5872)"/>
<line x1="206.5" y1="83" x2="206.5" y2="233" stroke="url(#paint8_linear_187_5872)"/>
<g filter="url(#filter0_f_187_5872)">
<circle cx="158" cy="158" r="54" fill="#CCF0F1" fill-opacity="0.5"/>
</g>
<g clip-path="url(#clip0_187_5872)">
<path d="M150.656 124H152.288L153.376 124.544L157.728 128.896L158.544 129.848L159.36 130.528L160.312 130.392L163.304 129.576L166.976 128.352L168.336 128.08H170.512L172.688 128.624L174.456 129.576L175.68 130.528L176.904 131.888L177.72 133.248L177.992 134.064V135.016L177.448 135.56L172.552 137.192L171.328 137.6L185.336 137.736L186.696 138.28L187.784 139.504L188.056 140.32V152.288L187.512 153.512L186.424 154.464L185.2 154.872H184.112V184.52L185.336 184.656L186.424 185.2L187.376 186.152L187.784 186.832L187.92 187.376V189.28L187.104 190.912L186.152 191.728L185.336 192H130.8L129.712 191.592L128.896 190.912L128.08 189.28V187.376L128.488 186.424L129.44 185.336L130.256 184.792L131.072 184.52H131.888V154.872H130.8L129.576 154.464L128.488 153.512L127.944 152.288V140.184L128.488 139.096L129.576 138.144L130.664 137.736H139.64L138.008 132.84V131.752L138.552 130.8L139.64 130.256L140.592 129.984H142.768L143.584 130.528L144.672 131.616L145.896 133.112L146.984 134.608L147.936 134.472L151.336 133.384V132.976L149.432 129.304L148.072 126.72V125.632L148.48 124.952L149.16 124.408L150.656 124ZM151.2 126.04L150.384 126.312L151.472 128.488L152.152 129.984L153.512 132.568L153.784 132.704L157.184 131.616L156.912 131.072L155.144 129.304L154.056 128.352L152.696 126.992L152.016 126.176L151.2 126.04ZM168.744 130.12L166.704 130.664L160.04 132.84L153.784 134.88L152.152 135.288L147.664 136.784L146.304 136.92L144.944 135.424L143.992 134.336L142.36 132.432L141.952 132.024L140.864 132.16L140.32 132.432L140.592 133.792L141 135.424L142.088 138.416L142.904 139.776L144.128 141L146.032 141.952L147.936 142.36L149.704 142.224L153.92 141L155.552 140.456V137.328L156.096 136.784H156.912L157.456 137.328L157.592 138.688L157.728 142.496L158.272 149.84L159.496 149.568L160.448 149.16L160.856 148.072L162.488 140.32L163.712 134.744L164.256 134.2L165.208 134.336L165.48 134.744L165.344 136.24L165.208 137.192L166.704 136.784L170.104 135.696L172.96 134.88L175.408 134.064L175.136 133.248L174.184 132.024L172.416 130.8L170.92 130.256L170.104 130.12H168.744ZM130.936 139.912L130.12 140.456L129.984 140.728V152.016L130.392 152.56L131.344 152.696H184.928L185.744 152.424L186.016 151.88V140.728L185.336 140.048L185.064 139.912H164.664L164.392 140.728L163.304 145.896L163.032 147.664L162.488 149.84L161.944 150.656L160.856 151.336L159.224 151.88H157.456L156.776 151.472L156.504 150.928L156.232 148.208L155.824 142.632L154.872 142.768L150.656 144.128L148.888 144.4H147.664L145.624 143.992L143.72 143.176L142.496 142.224L141.816 141.68L140.592 139.912H130.936ZM134.064 154.872V184.52H138.552L138.688 167.792L139.096 166.704L139.912 166.024L140.32 165.888H155.552L156.504 166.432L157.048 167.384L157.184 184.52H181.936V154.872H134.064ZM140.864 167.928L140.728 168.064V184.52H155.008V168.064L154.872 167.928H140.864ZM131.48 186.56L130.664 186.968L130.256 187.512L130.12 188.736L130.664 189.552L131.208 189.96H184.792L185.608 189.28L185.88 188.192L185.472 187.104L184.928 186.696L184.52 186.56H131.48Z" fill="#00B4BA"/>
<path d="M163.984 163.712H175.272L176.496 164.12L177.176 164.936L177.448 165.752V177.992L177.04 179.08L176.36 179.76L175.544 180.168H163.576L162.488 179.624L161.808 178.536L161.672 177.992V165.888L162.08 164.664L162.76 163.984L163.984 163.712ZM164.12 165.752L163.712 166.16V170.784H168.608V165.752H164.12ZM170.648 165.752V170.784H175.272V165.888L175 165.752H170.648ZM163.712 172.96V177.584L163.984 177.992H168.608V172.96H163.712ZM170.648 172.96V177.992H175.136L175.272 177.856V172.96H170.648Z" fill="#00B4BA"/>
<path d="M132.978 147.8H152.018L152.426 148.344V149.296L152.018 149.84H132.978L132.57 149.432L132.434 148.616L132.842 147.936L132.978 147.8Z" fill="#00B4BA"/>
<path d="M167.524 142.632H182.756L183.3 142.904L183.572 143.584L183.436 144.4L183.028 144.808H167.116L166.708 144.264V143.176L167.116 142.768L167.524 142.632Z" fill="#00B4BA"/>
<path d="M133.25 142.632H137.058L137.738 143.04L137.874 143.176V144.264L137.466 144.808H132.978L132.57 144.4L132.434 143.584L132.706 142.904L133.25 142.632Z" fill="#00B4BA"/>
<path d="M179.22 147.8H183.028L183.436 148.208L183.572 149.024L183.164 149.704L183.028 149.84H179.22L178.812 149.432L178.676 148.48L178.948 147.936L179.22 147.8Z" fill="#00B4BA"/>
<path d="M152.018 174.32L152.97 174.456L153.378 174.864V177.448L152.97 177.992L152.29 178.128L151.61 177.856L151.338 177.312V175L152.018 174.32Z" fill="#00B4BA"/>
</g>
<defs>
<filter id="filter0_f_187_5872" x="0" y="0" width="316" height="316" filterUnits="userSpaceOnUse" color-interpolation-filters="sRGB">
<feFlood flood-opacity="0" result="BackgroundImageFix"/>
<feBlend mode="normal" in="SourceGraphic" in2="BackgroundImageFix" result="shape"/>
<feGaussianBlur stdDeviation="52" result="effect1_foregroundBlur_187_5872"/>
</filter>
<linearGradient id="paint0_linear_187_5872" x1="83" y1="110" x2="241" y2="110" gradientUnits="userSpaceOnUse">
<stop stop-color="#EEEFF9" stop-opacity="0"/>
<stop offset="0.498348" stop-color="#EEEFF9"/>
<stop offset="1" stop-color="#EEEFF9" stop-opacity="0"/>
</linearGradient>
<linearGradient id="paint1_linear_187_5872" x1="83" y1="134" x2="241" y2="134" gradientUnits="userSpaceOnUse">
<stop stop-color="#EEEFF9" stop-opacity="0"/>
<stop offset="0.498348" stop-color="#EEEFF9"/>
<stop offset="1" stop-color="#EEEFF9" stop-opacity="0"/>
</linearGradient>
<linearGradient id="paint2_linear_187_5872" x1="83" y1="182" x2="241" y2="182" gradientUnits="userSpaceOnUse">
<stop stop-color="#EEEFF9" stop-opacity="0"/>
<stop offset="0.498348" stop-color="#EEEFF9"/>
<stop offset="1" stop-color="#EEEFF9" stop-opacity="0"/>
</linearGradient>
<linearGradient id="paint3_linear_187_5872" x1="83" y1="206" x2="241" y2="206" gradientUnits="userSpaceOnUse">
<stop stop-color="#EEEFF9" stop-opacity="0"/>
<stop offset="0.498348" stop-color="#EEEFF9"/>
<stop offset="1" stop-color="#EEEFF9" stop-opacity="0"/>
</linearGradient>
<linearGradient id="paint4_linear_187_5872" x1="110" y1="83" x2="110" y2="241" gradientUnits="userSpaceOnUse">
<stop stop-color="#EEEFF9" stop-opacity="0"/>
<stop offset="0.498348" stop-color="#EEEFF9"/>
<stop offset="1" stop-color="#EEEFF9" stop-opacity="0"/>
</linearGradient>
<linearGradient id="paint5_linear_187_5872" x1="134" y1="83" x2="134" y2="241" gradientUnits="userSpaceOnUse">
<stop stop-color="#EEEFF9" stop-opacity="0"/>
<stop offset="0.498348" stop-color="#EEEFF9"/>
<stop offset="1" stop-color="#EEEFF9" stop-opacity="0"/>
</linearGradient>
<linearGradient id="paint6_linear_187_5872" x1="158" y1="158" x2="157" y2="158" gradientUnits="userSpaceOnUse">
<stop stop-color="#EEEFF9"/>
<stop offset="1" stop-color="#8D8D93"/>
</linearGradient>
<linearGradient id="paint7_linear_187_5872" x1="182" y1="83" x2="182" y2="241" gradientUnits="userSpaceOnUse">
<stop stop-color="#EEEFF9" stop-opacity="0"/>
<stop offset="0.498348" stop-color="#EEEFF9"/>
<stop offset="1" stop-color="#EEEFF9" stop-opacity="0"/>
</linearGradient>
<linearGradient id="paint8_linear_187_5872" x1="206" y1="83" x2="206" y2="241" gradientUnits="userSpaceOnUse">
<stop stop-color="#EEEFF9" stop-opacity="0"/>
<stop offset="0.498348" stop-color="#EEEFF9"/>
<stop offset="1" stop-color="#EEEFF9" stop-opacity="0"/>
</linearGradient>
<clipPath id="clip0_187_5872">
<rect width="68" height="68" fill="white" transform="translate(124 124)"/>
</clipPath>
</defs>
</svg>
