<svg width="316" height="316" viewBox="0 0 316 316" fill="none" xmlns="http://www.w3.org/2000/svg">
<line x1="83" y1="109.5" x2="233" y2="109.5" stroke="url(#paint0_linear_139_1061)"/>
<line x1="83" y1="133.5" x2="233" y2="133.5" stroke="url(#paint1_linear_139_1061)"/>
<line x1="83" y1="157.5" x2="233" y2="157.5" stroke="#EEEFF9"/>
<line x1="83" y1="181.5" x2="233" y2="181.5" stroke="url(#paint2_linear_139_1061)"/>
<line x1="83" y1="205.5" x2="233" y2="205.5" stroke="url(#paint3_linear_139_1061)"/>
<line x1="110.5" y1="83" x2="110.5" y2="233" stroke="url(#paint4_linear_139_1061)"/>
<line x1="134.5" y1="83" x2="134.5" y2="233" stroke="url(#paint5_linear_139_1061)"/>
<line x1="158.5" y1="83" x2="158.5" y2="233" stroke="url(#paint6_linear_139_1061)"/>
<line x1="182.5" y1="83" x2="182.5" y2="233" stroke="url(#paint7_linear_139_1061)"/>
<line x1="206.5" y1="83" x2="206.5" y2="233" stroke="url(#paint8_linear_139_1061)"/>
<g filter="url(#filter0_f_139_1061)">
<circle cx="158" cy="158" r="54" fill="#CCF0F1" fill-opacity="0.5"/>
</g>
<path fill-rule="evenodd" clip-rule="evenodd" d="M126.75 131.364C125.557 131.789 124.645 132.738 124.217 133.999C124.021 134.575 124.001 136.61 124.001 155.723C124.001 179.214 123.935 177.577 124.927 178.832C125.303 179.306 125.704 179.618 126.349 179.936L127.248 180.379L132.571 180.419C137.826 180.458 137.897 180.455 138.252 180.177C138.529 179.959 138.61 179.78 138.61 179.389C138.61 178.503 138.756 178.527 132.846 178.453C127.584 178.388 127.515 178.383 127.032 178.083C126.379 177.677 125.993 176.862 125.993 175.888V175.133H158.001H190.009V175.888C190.009 176.862 189.623 177.677 188.97 178.083L188.481 178.387L165.148 178.421L141.815 178.456L141.541 178.805C141.228 179.202 141.207 179.372 141.414 179.827C141.672 180.392 142.014 180.445 145.399 180.445C148.375 180.445 148.584 180.461 148.521 180.678C148.483 180.806 148.261 182.052 148.027 183.448L147.601 185.986L146.299 186.065C144.801 186.156 144.224 186.388 143.5 187.19C142.229 188.596 142.71 190.844 144.473 191.744C144.958 191.992 145.4 192 158.001 192C170.689 192 171.04 191.993 171.539 191.739C173.281 190.85 173.761 188.583 172.502 187.19C171.777 186.388 171.201 186.156 169.702 186.065L168.401 185.986L167.975 183.448C167.741 182.052 167.519 180.807 167.482 180.682C167.419 180.467 168.063 180.451 178.084 180.416L188.753 180.379L189.652 179.936C190.299 179.618 190.699 179.307 191.077 178.829C192.071 177.57 192.008 179.226 191.969 155.47L191.934 134.16L191.608 133.502C191.214 132.707 190.487 131.955 189.715 131.543L189.145 131.238L181.878 131.201C174.724 131.164 174.607 131.167 174.341 131.433C174.072 131.702 173.997 132.152 174.153 132.559C174.352 133.077 174.593 133.096 181.799 133.164L188.796 133.23L189.22 133.629C190.06 134.42 190.009 133.086 190.009 154.011V173.141H158.001H125.993V154.011C125.993 133.086 125.941 134.42 126.782 133.629L127.206 133.23L148.99 133.164L170.774 133.098L171.094 132.725C171.487 132.269 171.498 131.977 171.14 131.522L170.864 131.172L149.06 131.178C131.054 131.183 127.167 131.215 126.75 131.364ZM130.297 138.52C129.826 138.925 129.797 139.603 130.236 139.958C130.525 140.192 131.065 140.203 142.211 140.203C153.707 140.203 153.888 140.199 154.149 139.938C154.507 139.58 154.5 138.861 154.135 138.53C153.866 138.286 153.45 138.276 142.259 138.242L130.661 138.207L130.297 138.52ZM179.335 138.486L178.985 138.761V145.786V152.81L179.276 153.081C179.55 153.336 179.731 153.352 182.505 153.352C185.278 153.352 185.459 153.336 185.734 153.081L186.024 152.81V145.786V138.761L185.674 138.486C185.345 138.227 185.156 138.211 182.505 138.211C179.853 138.211 179.664 138.227 179.335 138.486ZM184.032 145.781V151.359H182.505H180.977V145.781V140.203H182.505H184.032V145.781ZM160.319 141.193L159.993 141.519V147.16V152.801L160.343 153.076C160.673 153.336 160.86 153.352 163.582 153.352C166.229 153.352 166.498 153.33 166.785 153.098L167.099 152.844V147.109V141.375L166.785 141.121C166.498 140.888 166.229 140.867 163.558 140.867H160.645L160.319 141.193ZM165.173 147.109V151.359H163.579H161.985V147.109V142.859H163.579H165.173V147.109ZM130.416 143.681C129.801 143.982 129.766 145.056 130.361 145.375C130.537 145.469 133.038 145.516 137.944 145.516H145.263L145.604 145.175C145.88 144.899 145.929 144.754 145.86 144.413C145.687 143.547 146.108 143.592 138.041 143.564C133.031 143.546 130.615 143.583 130.416 143.681ZM149.001 143.661C148.71 143.778 148.438 144.263 148.438 144.667C148.438 144.775 148.585 145.01 148.764 145.19C149.086 145.512 149.12 145.516 151.487 145.516C153.707 145.516 153.903 145.496 154.149 145.25C154.545 144.854 154.504 144.144 154.065 143.799C153.742 143.544 153.547 143.524 151.508 143.532C150.295 143.536 149.166 143.595 149.001 143.661ZM169.742 144.068C169.508 144.327 169.486 144.63 169.448 148.152C169.403 152.265 169.437 152.701 169.829 153.093C170.069 153.334 170.292 153.352 173.052 153.352C175.98 153.352 176.021 153.348 176.306 153.044C176.59 152.742 176.595 152.667 176.595 148.529C176.595 144.497 176.583 144.309 176.329 144.055C176.079 143.805 175.886 143.789 173.029 143.789C170.114 143.789 169.985 143.8 169.742 144.068ZM174.602 148.57V151.359H173.009H171.415V148.57V145.781H173.009H174.602V148.57ZM130.416 149.659C129.801 149.956 129.765 151.033 130.361 151.351C130.541 151.448 134.31 151.492 142.254 151.492C153.707 151.492 153.888 151.488 154.149 151.227C154.545 150.831 154.504 150.12 154.065 149.775C153.717 149.501 153.655 149.5 142.211 149.509C134.387 149.515 130.615 149.563 130.416 149.659ZM130.406 154.901C130.313 154.939 130.144 155.149 130.031 155.369C129.86 155.699 129.852 155.838 129.985 156.159C130.074 156.374 130.254 156.607 130.385 156.677C130.517 156.747 131.677 156.805 132.963 156.805C135.269 156.805 135.307 156.8 135.628 156.479C135.807 156.299 135.954 155.998 135.954 155.809C135.954 155.619 135.807 155.318 135.628 155.139C135.305 154.816 135.277 154.813 132.939 154.823C131.639 154.829 130.499 154.864 130.406 154.901ZM138.804 155.139C138.624 155.318 138.477 155.619 138.477 155.809C138.477 155.998 138.624 156.299 138.804 156.479L139.129 156.805H146.422C153.599 156.805 153.721 156.8 154.065 156.529C154.522 156.17 154.542 155.509 154.108 155.101L153.8 154.812H146.465H139.129L138.804 155.139ZM177.428 156.431C177.224 156.531 176.413 157.995 174.798 161.173C173.513 163.701 172.413 165.82 172.352 165.881C172.291 165.943 171.357 164.25 170.276 162.12C169.131 159.863 168.175 158.139 167.986 157.99C167.21 157.38 166.851 157.721 165.52 160.333L164.442 162.449L162.471 162.516C160.599 162.579 160.487 162.598 160.247 162.896C159.881 163.348 159.921 163.9 160.343 164.232C160.666 164.487 160.867 164.508 162.981 164.508C165.024 164.508 165.304 164.481 165.586 164.257C165.761 164.119 166.23 163.342 166.629 162.531C167.028 161.719 167.387 161.056 167.426 161.057C167.465 161.059 168.423 162.866 169.556 165.074C172.439 170.698 172.191 170.693 175.003 165.172C176.063 163.09 177.144 160.975 177.405 160.471L177.879 159.555L179.04 161.799C179.679 163.033 180.323 164.148 180.471 164.275C180.706 164.478 181.045 164.508 183.092 164.508C185.274 164.508 185.464 164.488 185.734 164.237C186.155 163.844 186.126 163.146 185.674 162.791C185.359 162.543 185.145 162.516 183.489 162.516H181.653L180.241 159.727C179.465 158.193 178.73 156.821 178.608 156.678C178.331 156.35 177.812 156.242 177.428 156.431ZM130.57 160.117C129.887 160.397 129.699 161.305 130.236 161.739C130.525 161.973 131.065 161.984 142.211 161.984C153.707 161.984 153.888 161.98 154.149 161.719C154.507 161.361 154.5 160.642 154.135 160.312C153.866 160.067 153.459 160.058 142.348 160.033C136.019 160.018 130.719 160.057 130.57 160.117ZM130.406 165.394C130.313 165.431 130.144 165.641 130.031 165.862C129.86 166.191 129.852 166.33 129.985 166.652C130.074 166.866 130.254 167.099 130.385 167.169C130.527 167.245 132.882 167.297 136.193 167.297C141.626 167.297 141.771 167.29 142.112 167.022C142.569 166.662 142.589 166.002 142.155 165.593C141.848 165.306 141.822 165.305 136.211 165.315C133.111 165.321 130.499 165.356 130.406 165.394ZM165.438 180.479C165.438 180.497 165.647 181.707 165.902 183.168C166.158 184.629 166.367 185.863 166.367 185.909C166.368 185.956 165.682 186.017 164.844 186.043C163.489 186.086 163.287 186.124 163.029 186.382C162.674 186.736 162.648 187.381 162.973 187.741C163.194 187.985 163.433 188.003 166.925 188.041L170.641 188.082L170.962 188.455C171.354 188.911 171.365 189.202 171.007 189.658L170.732 190.008H158.001H145.27L144.995 189.658C144.637 189.202 144.648 188.911 145.04 188.455L145.361 188.082L152.444 188.048C159.458 188.013 159.53 188.01 159.761 187.734C160.065 187.368 160.056 186.795 159.739 186.403L159.486 186.09L154.56 186.051C151.85 186.029 149.634 185.969 149.635 185.918C149.635 185.866 149.844 184.629 150.099 183.168C150.355 181.707 150.563 180.497 150.563 180.479C150.563 180.46 153.91 180.445 158.001 180.445C162.092 180.445 165.438 180.46 165.438 180.479Z" fill="#00B4BA"/>
<defs>
<filter id="filter0_f_139_1061" x="0" y="0" width="316" height="316" filterUnits="userSpaceOnUse" color-interpolation-filters="sRGB">
<feFlood flood-opacity="0" result="BackgroundImageFix"/>
<feBlend mode="normal" in="SourceGraphic" in2="BackgroundImageFix" result="shape"/>
<feGaussianBlur stdDeviation="52" result="effect1_foregroundBlur_139_1061"/>
</filter>
<linearGradient id="paint0_linear_139_1061" x1="83" y1="110" x2="241" y2="110" gradientUnits="userSpaceOnUse">
<stop stop-color="#EEEFF9" stop-opacity="0"/>
<stop offset="0.498348" stop-color="#EEEFF9"/>
<stop offset="1" stop-color="#EEEFF9" stop-opacity="0"/>
</linearGradient>
<linearGradient id="paint1_linear_139_1061" x1="83" y1="134" x2="241" y2="134" gradientUnits="userSpaceOnUse">
<stop stop-color="#EEEFF9" stop-opacity="0"/>
<stop offset="0.498348" stop-color="#EEEFF9"/>
<stop offset="1" stop-color="#EEEFF9" stop-opacity="0"/>
</linearGradient>
<linearGradient id="paint2_linear_139_1061" x1="83" y1="182" x2="241" y2="182" gradientUnits="userSpaceOnUse">
<stop stop-color="#EEEFF9" stop-opacity="0"/>
<stop offset="0.498348" stop-color="#EEEFF9"/>
<stop offset="1" stop-color="#EEEFF9" stop-opacity="0"/>
</linearGradient>
<linearGradient id="paint3_linear_139_1061" x1="83" y1="206" x2="241" y2="206" gradientUnits="userSpaceOnUse">
<stop stop-color="#EEEFF9" stop-opacity="0"/>
<stop offset="0.498348" stop-color="#EEEFF9"/>
<stop offset="1" stop-color="#EEEFF9" stop-opacity="0"/>
</linearGradient>
<linearGradient id="paint4_linear_139_1061" x1="110" y1="83" x2="110" y2="241" gradientUnits="userSpaceOnUse">
<stop stop-color="#EEEFF9" stop-opacity="0"/>
<stop offset="0.498348" stop-color="#EEEFF9"/>
<stop offset="1" stop-color="#EEEFF9" stop-opacity="0"/>
</linearGradient>
<linearGradient id="paint5_linear_139_1061" x1="134" y1="83" x2="134" y2="241" gradientUnits="userSpaceOnUse">
<stop stop-color="#EEEFF9" stop-opacity="0"/>
<stop offset="0.498348" stop-color="#EEEFF9"/>
<stop offset="1" stop-color="#EEEFF9" stop-opacity="0"/>
</linearGradient>
<linearGradient id="paint6_linear_139_1061" x1="158" y1="158" x2="157" y2="158" gradientUnits="userSpaceOnUse">
<stop stop-color="#EEEFF9"/>
<stop offset="1" stop-color="#8D8D93"/>
</linearGradient>
<linearGradient id="paint7_linear_139_1061" x1="182" y1="83" x2="182" y2="241" gradientUnits="userSpaceOnUse">
<stop stop-color="#EEEFF9" stop-opacity="0"/>
<stop offset="0.498348" stop-color="#EEEFF9"/>
<stop offset="1" stop-color="#EEEFF9" stop-opacity="0"/>
</linearGradient>
<linearGradient id="paint8_linear_139_1061" x1="206" y1="83" x2="206" y2="241" gradientUnits="userSpaceOnUse">
<stop stop-color="#EEEFF9" stop-opacity="0"/>
<stop offset="0.498348" stop-color="#EEEFF9"/>
<stop offset="1" stop-color="#EEEFF9" stop-opacity="0"/>
</linearGradient>
</defs>
</svg>
