<svg width="69" height="41" viewBox="0 0 69 41" fill="none" xmlns="http://www.w3.org/2000/svg">
<path d="M6.28507 30.5055C8.8386 27.6323 11.3931 24.7591 13.9466 21.8859C12.562 18.6902 9.01609 17.0365 5.80605 17.9869C2.8193 18.8705 0.787745 21.8105 1.01771 25.0329C1.0492 29.9253 1.08069 34.8186 1.11218 39.7109C2.57407 39.4457 10.4121 37.8712 15.5516 30.3728C20.8715 22.6111 19.2483 14.4143 18.9496 13.0297C21.2846 12.0172 23.6206 11.0048 25.9556 9.99234C26.2734 9.85493 26.2266 9.39118 25.8879 9.31865C23.653 8.84345 21.4182 8.36729 19.1825 7.89208C17.9257 4.5828 15.1337 2.24684 11.8874 1.78976C11.3625 1.71533 7.51699 1.23631 4.91861 3.96255C2.51109 6.48936 2.1647 10.7328 4.24397 14.3026C6.2011 14.2997 8.15728 14.2959 10.1144 14.2931" stroke="#00B4BA" stroke-width="1.8" stroke-miterlimit="10" stroke-linecap="round"/>
<path d="M65.6076 25.9029V18.7529H67.9096H67.9596V18.7029V17.1189V17.0689H67.9096H65.6076V13.9509V13.9009H65.5576H63.7576H63.7076V13.9509V17.0689H61.8376H61.7876V17.1189V18.7029V18.7529H61.8376H63.7076V26.2869C63.7076 27.1586 63.9256 27.8506 64.366 28.325C64.807 28.7999 65.464 29.0489 66.3256 29.0489C67.393 29.0489 68.0538 28.733 68.52 28.2912L68.5445 28.268L68.5322 28.2366L68.0042 26.8926L67.9748 26.8178L67.9206 26.8773C67.6915 27.1294 67.2257 27.3409 66.7336 27.3409C66.3525 27.3409 66.0739 27.1917 65.8889 26.9412C65.7023 26.6887 65.6076 26.3285 65.6076 25.9029Z" fill="#00B4BA" stroke="#00B4BA" stroke-width="0.1"/>
<path d="M59.807 28.7608H59.857V28.7108V17.1188V17.0688H59.807H58.007H57.957V17.1188V28.7108V28.7608H58.007H59.807ZM57.645 14.2628C57.645 14.9631 58.2201 15.5128 58.895 15.5128C59.5933 15.5128 60.169 14.9637 60.169 14.2628C60.169 13.5632 59.5946 12.9888 58.895 12.9888C58.2188 12.9888 57.645 13.5638 57.645 14.2628Z" fill="#00B4BA" stroke="#00B4BA" stroke-width="0.1"/>
<path d="M46.0726 33.1768H46.1226V33.1268V27.1099C47.0657 28.343 48.4342 29.0488 49.9846 29.0488C51.5224 29.0488 52.8265 28.4551 53.7455 27.3874C54.664 26.3204 55.1946 24.784 55.1946 22.9028C55.1946 21.0097 54.664 19.4791 53.7454 18.421C52.8262 17.3623 51.522 16.7808 49.9846 16.7808C48.3927 16.7808 46.9821 17.5716 46.1226 18.6951V17.1188V17.0688H46.0726H44.2726H44.2226V17.1188V33.1268V33.1768H44.2726H46.0726ZM53.1986 22.9028C53.1986 24.1783 52.8529 25.2884 52.2226 26.0786C51.5931 26.8677 50.6775 27.3408 49.5286 27.3408C48.1359 27.3408 46.7415 26.4929 46.1226 25.5045V20.3011C46.7412 19.3134 48.1353 18.4888 49.5286 18.4888C50.6777 18.4888 51.5933 18.9561 52.2227 19.7391C52.8529 20.5233 53.1986 21.6274 53.1986 22.9028Z" fill="#00B4BA" stroke="#00B4BA" stroke-width="0.1"/>
<path d="M40.682 28.7608H40.732V28.7108V17.1188V17.0688H40.682H38.882H38.832V17.1188V28.7108V28.7608H38.882H40.682ZM38.52 14.2628C38.52 14.9631 39.0951 15.5128 39.77 15.5128C40.4683 15.5128 41.044 14.9637 41.044 14.2628C41.044 13.5632 40.4696 12.9888 39.77 12.9888C39.0938 12.9888 38.52 13.5638 38.52 14.2628Z" fill="#00B4BA" stroke="#00B4BA" stroke-width="0.1"/>
<path d="M26.9476 33.1768H26.9976V33.1268V27.1099C27.9407 28.343 29.3092 29.0488 30.8596 29.0488C32.3974 29.0488 33.7015 28.4551 34.6205 27.3874C35.539 26.3204 36.0696 24.784 36.0696 22.9028C36.0696 21.0097 35.539 19.4791 34.6204 18.421C33.7012 17.3623 32.397 16.7808 30.8596 16.7808C29.2677 16.7808 27.8571 17.5716 26.9976 18.6951V17.1188V17.0688H26.9476H25.1476H25.0976V17.1188V33.1268V33.1768H25.1476H26.9476ZM34.0736 22.9028C34.0736 24.1783 33.7279 25.2884 33.0976 26.0786C32.4681 26.8677 31.5525 27.3408 30.4036 27.3408C29.0109 27.3408 27.6165 26.4929 26.9976 25.5045V20.3011C27.6162 19.3134 29.0103 18.4888 30.4036 18.4888C31.5527 18.4888 32.4683 18.9561 33.0977 19.7391C33.7279 20.5233 34.0736 21.6274 34.0736 22.9028Z" fill="#00B4BA" stroke="#00B4BA" stroke-width="0.1"/>
</svg>
