<svg width="82" height="48" viewBox="0 0 82 48" fill="none" xmlns="http://www.w3.org/2000/svg">
<path d="M8.21773 35.8759C11.2219 32.4957 14.2271 29.1155 17.2313 25.7352C15.6024 21.9756 11.4307 20.03 7.65418 21.1482C4.14036 22.1877 1.75029 25.6465 2.02084 29.4377C2.05789 35.1934 2.09493 40.9502 2.13198 46.7059C3.85184 46.3938 13.0731 44.5415 19.1195 35.7199C25.3782 26.5884 23.4686 16.9451 23.1172 15.3161C25.8643 14.125 28.6125 12.9339 31.3595 11.7428C31.7334 11.5812 31.6784 11.0356 31.2798 10.9503C28.6506 10.3912 26.0215 9.831 23.3911 9.27193C21.9126 5.37866 18.6278 2.63048 14.8087 2.09274C14.1912 2.00517 9.66704 1.44162 6.61013 4.64896C3.77775 7.62167 3.37023 12.614 5.81644 16.8137C8.11894 16.8104 10.4203 16.8059 12.7228 16.8025" stroke="white" stroke-width="2.11765" stroke-miterlimit="10" stroke-linecap="round"/>
<path d="M78.0088 30.4612V22.0494H80.717H80.7758V21.9906V20.1271V20.0683H80.717H78.0088V16.4V16.3412H77.95H75.8323H75.7735V16.4V20.0683H73.5735H73.5147V20.1271V21.9906V22.0494H73.5735H75.7735V30.913C75.7735 31.9385 76.0299 32.7526 76.548 33.3106C77.0669 33.8694 77.8398 34.1624 78.8535 34.1624C80.1092 34.1624 80.8866 33.7907 81.4351 33.271L81.4639 33.2437L81.4494 33.2067L80.8282 31.6256L80.7936 31.5375L80.73 31.6075C80.4604 31.9041 79.9124 32.153 79.3335 32.153C78.8851 32.153 78.5573 31.9774 78.3396 31.6827C78.1202 31.3856 78.0088 30.9618 78.0088 30.4612Z" fill="white" stroke="white" stroke-width="0.117647"/>
<path d="M71.1848 33.8235H71.2436V33.7647V20.127V20.0682H71.1848H69.0671H69.0083V20.127V33.7647V33.8235H69.0671H71.1848ZM68.6412 16.767C68.6412 17.5909 69.3178 18.2376 70.1118 18.2376C70.9334 18.2376 71.6107 17.5916 71.6107 16.767C71.6107 15.944 70.9349 15.2682 70.1118 15.2682C69.3162 15.2682 68.6412 15.9447 68.6412 16.767Z" fill="white" stroke="white" stroke-width="0.117647"/>
<path d="M55.0267 39.0188H55.0855V38.96V31.8813C56.195 33.332 57.805 34.1623 59.6291 34.1623C61.4382 34.1623 62.9724 33.4638 64.0536 32.2078C65.1342 30.9525 65.7585 29.1449 65.7585 26.9317C65.7585 24.7046 65.1342 22.9039 64.0535 21.6591C62.9721 20.4135 61.4378 19.7294 59.6291 19.7294C57.7562 19.7294 56.0966 20.6597 55.0855 21.9815V20.127V20.0682H55.0267H52.9091H52.8502V20.127V38.96V39.0188H52.9091H55.0267ZM63.4102 26.9317C63.4102 28.4323 63.0035 29.7384 62.2619 30.668C61.5213 31.5963 60.4442 32.1529 59.0926 32.1529C57.454 32.1529 55.8136 31.1554 55.0855 29.9926V23.8709C55.8132 22.7089 57.4534 21.7388 59.0926 21.7388C60.4444 21.7388 61.5216 22.2885 62.262 23.2098C63.0035 24.1323 63.4102 25.4312 63.4102 26.9317Z" fill="white" stroke="white" stroke-width="0.117647"/>
<path d="M48.6848 33.8235H48.7436V33.7647V20.127V20.0682H48.6848H46.5671H46.5083V20.127V33.7647V33.8235H46.5671H48.6848ZM46.1412 16.767C46.1412 17.5909 46.8178 18.2376 47.6118 18.2376C48.4334 18.2376 49.1107 17.5916 49.1107 16.767C49.1107 15.944 48.4349 15.2682 47.6118 15.2682C46.8162 15.2682 46.1412 15.9447 46.1412 16.767Z" fill="white" stroke="white" stroke-width="0.117647"/>
<path d="M32.5267 39.0188H32.5855V38.96V31.8813C33.695 33.332 35.305 34.1623 37.1291 34.1623C38.9382 34.1623 40.4724 33.4638 41.5536 32.2078C42.6342 30.9525 43.2585 29.1449 43.2585 26.9317C43.2585 24.7046 42.6342 22.9039 41.5535 21.6591C40.4721 20.4135 38.9378 19.7294 37.1291 19.7294C35.2562 19.7294 33.5966 20.6597 32.5855 21.9815V20.127V20.0682H32.5267H30.4091H30.3502V20.127V38.96V39.0188H30.4091H32.5267ZM40.9102 26.9317C40.9102 28.4323 40.5035 29.7384 39.7619 30.668C39.0213 31.5963 37.9442 32.1529 36.5926 32.1529C34.954 32.1529 33.3136 31.1554 32.5855 29.9926V23.8709C33.3132 22.7089 34.9534 21.7388 36.5926 21.7388C37.9444 21.7388 39.0216 22.2885 39.762 23.2098C40.5035 24.1323 40.9102 25.4312 40.9102 26.9317Z" fill="white" stroke="white" stroke-width="0.117647"/>
</svg>
