<svg width="127" height="80" viewBox="0 0 127 80" fill="none" xmlns="http://www.w3.org/2000/svg">
<path d="M0.5 79.9999V35.3856H7.52323V39.8004C9.93115 36.5903 13.6765 34.5834 17.8907 34.5834C26.2514 34.5834 32.2041 40.8709 32.2041 51.5055C32.2041 62.1401 26.2514 68.4954 17.8907 68.4954C13.8107 68.4954 10.1317 66.6891 7.52323 63.212V79.9999H0.5ZM15.8175 40.8045C12.5396 40.8045 9.06257 42.7436 7.52323 45.1516V57.9272C9.06121 60.2674 12.5396 62.2743 15.8175 62.2743C21.3691 62.2743 24.9139 57.793 24.9139 51.5055C24.9139 45.218 21.3691 40.8032 15.8175 40.8032V40.8045Z" fill="white"/>
<path d="M46.3187 35.3863H39.2955V67.6925H46.3187V35.3863Z" fill="white"/>
<path d="M55.4128 80V35.3858H62.4361V39.8006C64.844 36.5904 68.5894 34.5836 72.8036 34.5836C81.1642 34.5836 87.117 40.8711 87.117 51.5057C87.117 62.1402 81.1642 68.4955 72.8036 68.4955C68.7235 68.4955 65.0445 66.6892 62.4361 63.2121V80H55.4128ZM70.7303 40.8047C67.4525 40.8047 63.9754 42.7438 62.4361 45.1517V57.9273C63.9741 60.2675 67.4525 62.2744 70.7303 62.2744C76.282 62.2744 79.8268 57.7932 79.8268 51.5057C79.8268 45.2181 76.282 40.8033 70.7303 40.8033V40.8047Z" fill="white"/>
<path d="M101.232 35.3863H94.2087V67.6925H101.232V35.3863Z" fill="white"/>
<path d="M111.735 60.2017V41.5397H106.384V35.3864H111.735V26.5581H118.758V35.3864H125.312V41.5397H118.758V58.4618C118.758 60.6692 119.829 62.275 121.835 62.275C123.173 62.275 124.444 61.7397 124.979 61.1381L126.651 66.4229C125.38 67.6262 123.307 68.4961 120.029 68.4961C114.612 68.4961 111.735 65.5529 111.735 60.2017Z" fill="white"/>
<path d="M18.2047 11.5169L48.8628 9.67759L20.6615 26.7103L26.0279 15.8203L18.2047 11.5169Z" fill="white"/>
<path d="M115.367 4.96159C119.72 4.98031 122.998 8.99854 122.06 13.2352C121.284 16.7355 119.215 19.5703 117.168 22.4031C116.856 22.8357 116.534 23.2641 116.187 23.6676C115.654 24.2874 115.03 24.3581 114.519 23.7009C112.046 20.5167 109.556 17.3179 108.62 13.283C107.624 8.99438 110.958 4.94287 115.369 4.95951H115.367V4.96159ZM115.34 14.3292C116.654 14.3229 117.761 13.2352 117.79 11.9207C117.821 10.5584 116.684 9.40411 115.321 9.41035C114.005 9.41659 112.9 10.5023 112.871 11.8167C112.842 13.179 113.978 14.3333 115.34 14.3292Z" fill="white"/>
<path d="M50.7179 8.93249L50.0606 8.43125C50.3352 8.07144 50.6139 7.73035 50.9113 7.38718L51.5352 7.92793C51.2503 8.25863 50.982 8.58724 50.7179 8.93249Z" fill="white"/>
<path d="M52.8743 6.51198L52.2982 5.92131C52.9471 5.28904 53.6292 4.69421 54.326 4.15553L54.8314 4.8086C54.1575 5.32856 53.5003 5.90259 52.8743 6.51198ZM56.4224 3.69173L55.9794 2.99291C56.751 2.50415 57.5476 2.07154 58.3504 1.70549L58.6936 2.45839C57.9261 2.8078 57.1607 3.22377 56.4224 3.69173Z" fill="white"/>
<path d="M78.9571 16.3121L78.878 15.4906C79.712 15.4116 80.5793 15.1973 81.3177 14.8916L81.6338 15.6549C80.8206 15.9918 79.8701 16.2269 78.955 16.3142H78.9571V16.3121ZM76.8794 16.2456C75.9122 16.1 74.9971 15.8192 74.2359 15.4324L74.6103 14.6961C75.2841 15.0372 76.1348 15.2992 77.0021 15.4282L76.8794 16.2456ZM83.4349 14.5006L82.8422 13.9245C83.0855 13.6728 83.2498 13.4066 83.3288 13.1279C83.3746 12.9719 83.3954 12.7993 83.3954 12.6142C83.3954 12.3854 83.36 12.1337 83.2935 11.8654L84.0942 11.6637C84.1774 11.9965 84.2211 12.3147 84.2211 12.6121C84.2211 12.8742 84.1878 13.1258 84.1212 13.3546C84.0027 13.7643 83.7718 14.1491 83.4328 14.4985L83.4349 14.5006ZM72.5617 14.0513C72.4161 13.8309 72.3059 13.5979 72.2352 13.3588C72.1665 13.1258 72.1312 12.8721 72.1312 12.6038C72.1312 12.1608 72.2248 11.6699 72.4119 11.1479L73.1898 11.4245C73.0359 11.8592 72.9568 12.2544 72.9568 12.6038C72.9568 12.793 72.9797 12.9698 73.0255 13.1258C73.0733 13.286 73.1482 13.442 73.248 13.5938L72.5596 14.0513H72.5617ZM82.551 10.1683C82.1537 9.50275 81.638 8.81433 81.014 8.12174L81.6275 7.56851C82.2868 8.30269 82.8359 9.03479 83.2602 9.74609L82.551 10.1704V10.1683ZM74.0508 9.75441L73.3603 9.30101C73.8179 8.60219 74.3898 7.8888 75.0554 7.18166L75.6564 7.74945C75.0221 8.42124 74.4813 9.09719 74.0508 9.75441ZM79.6413 6.74697C79.1713 6.32061 78.6721 5.90672 78.1501 5.50948C77.7737 5.79857 77.4097 6.09807 77.0603 6.4038L76.5175 5.78193C76.9896 5.37013 77.4867 4.96872 78.0024 4.58811L78.1023 4.44876C78.1168 4.45916 78.1314 4.46956 78.148 4.48204C78.3103 4.36349 78.4746 4.24702 78.6409 4.13263L79.111 4.81273C79.0216 4.87513 78.93 4.93752 78.8427 5.002C79.3148 5.36805 79.7703 5.74866 80.1987 6.13966L79.6434 6.75113V6.74697H79.6413ZM103.892 6.51403C103.264 5.90464 102.604 5.33269 101.933 4.80857L102.44 4.1555C103.137 4.69626 103.819 5.28901 104.468 5.9192L103.892 6.51195V6.51403ZM75.9892 4.04943C75.2446 3.60227 74.4709 3.19462 73.6931 2.83689L74.0383 2.08607C74.8453 2.45628 75.6439 2.87849 76.4156 3.34229L75.9892 4.04943ZM80.754 3.7645L80.3401 3.04903C81.1201 2.59771 81.925 2.18798 82.7361 1.83025L83.0689 2.58523C82.2868 2.93048 81.5069 3.32773 80.754 3.7645ZM100.344 3.68546C99.6054 3.21334 98.8442 2.79113 98.0788 2.4334L98.4282 1.68466C99.2248 2.05695 100.019 2.4958 100.789 2.98872L100.344 3.68546ZM71.8899 2.09855C71.0663 1.80321 70.2281 1.56195 69.4025 1.37893L69.5813 0.571954C70.4424 0.761219 71.3117 1.01496 72.1686 1.32069L71.8899 2.09855ZM84.8804 1.87601L84.6141 1.09399C85.4752 0.800735 86.3487 0.561555 87.2118 0.386849L87.3761 1.1959C86.5484 1.36437 85.7081 1.59315 84.8804 1.87601ZM60.4905 1.7533L60.2326 0.967122C61.0936 0.686345 61.9776 0.470042 62.8615 0.330693L62.9925 1.14599C62.1523 1.28118 61.3099 1.485 60.4905 1.7533ZM96.2839 1.70962C95.4645 1.43092 94.6242 1.21462 93.7882 1.06695L93.9317 0.25374C94.8093 0.407647 95.6891 0.634349 96.5501 0.927605L96.2839 1.70962ZM67.4911 1.05863C66.6238 0.960882 65.769 0.927605 64.9142 0.958803L64.883 0.133109C65.7774 0.0998319 66.6758 0.133109 67.5847 0.237101L67.4911 1.05863ZM89.2937 0.906807L89.2126 0.0852731C89.797 0.0291176 90.3856 0 90.9617 0H90.9721C91.2882 0 91.6064 0.00831933 91.9163 0.024958L91.8706 0.850651C91.5752 0.834013 91.2716 0.825693 90.97 0.825693H90.9617C90.4126 0.825693 89.8532 0.852731 89.2937 0.908887V0.906807Z" fill="white"/>
<path d="M106.071 8.93522C105.803 8.59205 105.533 8.26552 105.245 7.93482L105.867 7.38991C106.167 7.731 106.446 8.07001 106.724 8.42566L106.073 8.93314H106.071V8.93522Z" fill="white"/>
</svg>
