<svg width="69" height="41" viewBox="0 0 69 41" fill="none" xmlns="http://www.w3.org/2000/svg">
<path d="M6.28507 29.7945C8.8386 26.9213 11.3931 24.0481 13.9466 21.1749C12.562 17.9792 9.01609 16.3255 5.80605 17.276C2.8193 18.1596 0.787745 21.0996 1.01771 24.322C1.0492 29.2144 1.08069 34.1077 1.11218 39C2.57407 38.7347 10.4121 37.1602 15.5516 29.6619C20.8715 21.9002 19.2483 13.7033 18.9496 12.3187C21.2846 11.3063 23.6206 10.2938 25.9556 9.2814C26.2734 9.14399 26.2266 8.68024 25.8879 8.60772C23.653 8.13251 21.4182 7.65635 19.1825 7.18114C17.9257 3.87186 15.1337 1.5359 11.8874 1.07883C11.3625 1.0044 7.51699 0.525374 4.91861 3.25161C2.51109 5.77842 2.1647 10.0219 4.24397 13.5917C6.2011 13.5888 8.15728 13.585 10.1144 13.5821" stroke="#00B4BA" stroke-width="1.8" stroke-miterlimit="10" stroke-linecap="round"/>
<path d="M65.6076 25.192V18.042H67.9096H67.9596V17.992V16.408V16.358H67.9096H65.6076V13.24V13.19H65.5576H63.7576H63.7076V13.24V16.358H61.8376H61.7876V16.408V17.992V18.042H61.8376H63.7076V25.576C63.7076 26.4477 63.9256 27.1397 64.366 27.614C64.807 28.089 65.464 28.338 66.3256 28.338C67.393 28.338 68.0538 28.022 68.52 27.5803L68.5445 27.5571L68.5322 27.5257L68.0042 26.1817L67.9748 26.1068L67.9206 26.1664C67.6915 26.4184 67.2257 26.63 66.7336 26.63C66.3525 26.63 66.0739 26.4808 65.8889 26.2303C65.7023 25.9778 65.6076 25.6175 65.6076 25.192Z" fill="#00B4BA" stroke="#00B4BA" stroke-width="0.1"/>
<path d="M59.8071 28.0499H59.8571V27.9999V16.4079V16.3579H59.8071H58.0071H57.9571V16.4079V27.9999V28.0499H58.0071H59.8071ZM57.6451 13.5519C57.6451 14.2521 58.2201 14.8019 58.8951 14.8019C59.5934 14.8019 60.1691 14.2528 60.1691 13.5519C60.1691 12.8523 59.5947 12.2779 58.8951 12.2779C58.2188 12.2779 57.6451 12.8529 57.6451 13.5519Z" fill="#00B4BA" stroke="#00B4BA" stroke-width="0.1"/>
<path d="M46.0727 32.4659H46.1227V32.4159V26.399C47.0658 27.6321 48.4342 28.3379 49.9847 28.3379C51.5224 28.3379 52.8266 27.7441 53.7456 26.6765C54.6641 25.6095 55.1947 24.073 55.1947 22.1919C55.1947 20.2988 54.6641 18.7682 53.7455 17.7101C52.8263 16.6514 51.5221 16.0699 49.9847 16.0699C48.3928 16.0699 46.9821 16.8606 46.1227 17.9842V16.4079V16.3579H46.0727H44.2727H44.2227V16.4079V32.4159V32.4659H44.2727H46.0727ZM53.1987 22.1919C53.1987 23.4673 52.853 24.5775 52.2226 25.3677C51.5931 26.1568 50.6775 26.6299 49.5287 26.6299C48.1359 26.6299 46.7415 25.7819 46.1227 24.7936V19.5902C46.7412 18.6025 48.1354 17.7779 49.5287 17.7779C50.6778 17.7779 51.5934 18.2452 52.2227 19.0282C52.853 19.8123 53.1987 20.9164 53.1987 22.1919Z" fill="#00B4BA" stroke="#00B4BA" stroke-width="0.1"/>
<path d="M40.6821 28.0499H40.7321V27.9999V16.4079V16.3579H40.6821H38.8821H38.8321V16.4079V27.9999V28.0499H38.8821H40.6821ZM38.5201 13.5519C38.5201 14.2521 39.0951 14.8019 39.7701 14.8019C40.4684 14.8019 41.0441 14.2528 41.0441 13.5519C41.0441 12.8523 40.4697 12.2779 39.7701 12.2779C39.0938 12.2779 38.5201 12.8529 38.5201 13.5519Z" fill="#00B4BA" stroke="#00B4BA" stroke-width="0.1"/>
<path d="M26.9477 32.4659H26.9977V32.4159V26.399C27.9408 27.6321 29.3092 28.3379 30.8597 28.3379C32.3974 28.3379 33.7016 27.7441 34.6206 26.6765C35.5391 25.6095 36.0697 24.073 36.0697 22.1919C36.0697 20.2988 35.5391 18.7682 34.6205 17.7101C33.7013 16.6514 32.3971 16.0699 30.8597 16.0699C29.2678 16.0699 27.8571 16.8606 26.9977 17.9842V16.4079V16.3579H26.9477H25.1477H25.0977V16.4079V32.4159V32.4659H25.1477H26.9477ZM34.0737 22.1919C34.0737 23.4673 33.728 24.5775 33.0976 25.3677C32.4681 26.1568 31.5525 26.6299 30.4037 26.6299C29.0109 26.6299 27.6165 25.7819 26.9977 24.7936V19.5902C27.6162 18.6025 29.0104 17.7779 30.4037 17.7779C31.5528 17.7779 32.4684 18.2452 33.0977 19.0282C33.728 19.8123 34.0737 20.9164 34.0737 22.1919Z" fill="#00B4BA" stroke="#00B4BA" stroke-width="0.1"/>
</svg>
