<svg width="316" height="316" viewBox="0 0 316 316" fill="none" xmlns="http://www.w3.org/2000/svg">
<line x1="83" y1="109.5" x2="233" y2="109.5" stroke="url(#paint0_linear_139_1104)"/>
<line x1="83" y1="133.5" x2="233" y2="133.5" stroke="url(#paint1_linear_139_1104)"/>
<line x1="83" y1="157.5" x2="233" y2="157.5" stroke="#EEEFF9"/>
<line x1="83" y1="181.5" x2="233" y2="181.5" stroke="url(#paint2_linear_139_1104)"/>
<line x1="83" y1="205.5" x2="233" y2="205.5" stroke="url(#paint3_linear_139_1104)"/>
<line x1="110.5" y1="83" x2="110.5" y2="233" stroke="url(#paint4_linear_139_1104)"/>
<line x1="134.5" y1="83" x2="134.5" y2="233" stroke="url(#paint5_linear_139_1104)"/>
<line x1="158.5" y1="83" x2="158.5" y2="233" stroke="url(#paint6_linear_139_1104)"/>
<line x1="182.5" y1="83" x2="182.5" y2="233" stroke="url(#paint7_linear_139_1104)"/>
<line x1="206.5" y1="83" x2="206.5" y2="233" stroke="url(#paint8_linear_139_1104)"/>
<g filter="url(#filter0_f_139_1104)">
<circle cx="158" cy="158" r="54" fill="#CCF0F1" fill-opacity="0.5"/>
</g>
<g clip-path="url(#clip0_139_1104)">
<path fill-rule="evenodd" clip-rule="evenodd" d="M125.372 124.177C124.822 124.417 124.142 125.224 124.048 125.749C124.006 125.988 123.988 139.008 124.009 154.682L124.047 183.181L124.43 183.683C124.953 184.369 125.692 184.681 126.802 184.684L127.699 184.687V185.555C127.699 186.491 127.936 187.22 128.403 187.719C128.874 188.224 129.162 188.324 130.355 188.401L131.484 188.473L131.554 189.539C131.636 190.803 131.914 191.292 132.789 191.715C133.359 191.991 133.413 191.992 149.354 191.992H165.347L170.23 187.109L175.113 182.226V177.082V171.937L176.009 171.937C177.921 171.936 180.469 171.333 182.53 170.393C183.761 169.832 184.011 169.617 184.011 169.119C184.011 168.593 183.796 168.231 183.391 168.077C183.111 167.971 182.824 168.053 181.713 168.563C176.824 170.804 171.22 170.261 166.961 167.133L166.046 166.462L170.953 161.555L175.86 156.648L182.526 158.409C188.808 160.069 189.188 160.186 189.113 160.443C188.885 161.234 187.773 163.269 187.008 164.295C186.529 164.938 186.136 165.567 186.136 165.694C186.136 166.153 186.654 166.625 187.157 166.625C187.719 166.625 188.193 166.165 189.21 164.633C190.363 162.894 191.168 160.974 191.669 158.767C191.988 157.358 191.988 153.787 191.667 152.308C190.935 148.923 189.363 146.072 186.947 143.743C184.041 140.942 180.508 139.388 176.547 139.172L175.126 139.094L175.086 135.948L175.047 132.803L174.664 132.301C174.143 131.619 173.4 131.303 172.308 131.3L171.429 131.297L171.366 130.317C171.254 128.56 170.516 127.841 168.718 127.737L167.675 127.677V127.181C167.675 126.348 167.428 125.321 167.125 124.896C166.968 124.674 166.593 124.381 166.294 124.245C165.771 124.008 164.973 123.998 145.761 124C129.537 124.002 125.698 124.035 125.372 124.177ZM165.546 126.241C165.621 126.382 165.683 126.771 165.683 127.104V127.711H154.014C142.409 127.711 142.342 127.712 141.994 127.986C141.556 128.331 141.514 129.042 141.91 129.437C142.172 129.7 142.353 129.703 155.629 129.703C165.916 129.703 169.121 129.741 169.243 129.862C169.33 129.95 169.402 130.308 169.402 130.658V131.294L151.23 131.329L133.058 131.363L132.524 131.717C131.459 132.422 131.55 129.79 131.55 159.712V186.426L130.654 186.387L129.757 186.348L129.724 158.205C129.699 137.514 129.73 130.015 129.84 129.883C129.959 129.739 130.738 129.703 133.692 129.703C137.217 129.703 137.407 129.69 137.66 129.437C138.059 129.038 138.014 128.331 137.566 127.979C137.216 127.703 137.115 127.698 133.283 127.737C129.454 127.776 129.347 127.785 128.868 128.083C128.598 128.251 128.239 128.609 128.071 128.88L127.765 129.371L127.731 156.039L127.696 182.708L126.867 182.668L126.039 182.629L126.005 154.473C125.986 138.987 125.999 126.242 126.034 126.15C126.084 126.019 130.15 125.984 145.753 125.984C165.05 125.984 165.411 125.989 165.546 126.241ZM173.09 136.301C173.13 139.591 173.225 139.279 172.128 139.465C171.173 139.627 169.488 140.213 168.328 140.787C163.949 142.953 160.91 146.685 159.617 151.484C159.157 153.193 159.034 156.526 159.365 158.324C160.281 163.295 163.196 167.422 167.516 169.864C168.636 170.497 170.471 171.219 171.598 171.47C172.107 171.584 172.658 171.706 172.822 171.743L173.121 171.81V176.256V180.703L169.634 180.704C167.646 180.704 165.936 180.763 165.654 180.842C165.021 181.018 164.369 181.568 164.138 182.12C163.999 182.452 163.957 183.433 163.957 186.277V190.001L148.783 189.967L133.609 189.934L133.575 161.777C133.556 146.291 133.569 133.546 133.604 133.455C133.655 133.322 137.676 133.295 153.361 133.322L173.054 133.355L173.09 136.301ZM139.396 140.811C139.08 141.213 139.06 141.379 139.276 141.85C139.374 142.066 139.605 142.241 139.906 142.328C140.223 142.42 143.693 142.453 150.256 142.426L160.129 142.387L160.383 142.073C160.712 141.667 160.706 141.062 160.371 140.726C160.11 140.466 159.928 140.461 149.888 140.461H139.671L139.396 140.811ZM177.918 141.319C178.53 141.426 179.372 141.62 179.789 141.751L180.547 141.988L177.621 148.496L174.696 155.004L169.672 160.037L164.648 165.07L163.971 164.154C162.695 162.427 161.765 160.314 161.374 158.256C161.111 156.865 161.108 154.221 161.368 152.846C162.484 146.963 167.103 142.396 173.023 141.323C174.331 141.086 176.571 141.084 177.918 141.319ZM183.504 143.496C187.842 146.328 190.439 151.753 189.897 156.848C189.822 157.554 189.737 158.155 189.708 158.184C189.66 158.232 177.098 154.951 176.995 154.864C176.923 154.804 182.327 142.851 182.426 142.851C182.476 142.851 182.961 143.142 183.504 143.496ZM139.396 148.116C139.245 148.308 139.121 148.544 139.121 148.641C139.121 149.007 139.435 149.48 139.771 149.619C140.014 149.72 142.494 149.753 147.867 149.728L155.613 149.691L155.867 149.378C156.196 148.971 156.191 148.367 155.855 148.031C155.595 147.771 155.412 147.766 147.63 147.766H139.671L139.396 148.116ZM139.396 155.42C139.245 155.613 139.121 155.849 139.121 155.945C139.121 156.312 139.435 156.785 139.772 156.924C140.015 157.025 142.187 157.058 146.806 157.033L153.488 156.996L153.742 156.682C154.072 156.275 154.065 155.726 153.725 155.361L153.454 155.07H146.563H139.671L139.396 155.42ZM146.16 166.492C145.909 166.743 145.894 166.935 145.894 170.012V173.266H143.646H141.398L141.123 173.616C140.859 173.95 140.847 174.124 140.847 177.649V181.332L140.306 181.405C140.008 181.445 139.649 181.581 139.509 181.708C139.168 182.017 139.174 182.748 139.519 183.094C139.78 183.354 139.962 183.359 149.347 183.359C158.733 183.359 158.915 183.354 159.175 183.094C159.785 182.485 159.353 181.534 158.41 181.408L157.847 181.332V176.387C157.847 171.585 157.839 171.432 157.572 171.092L157.297 170.742H155.049H152.8V168.775C152.8 166.034 153.061 166.226 149.342 166.226C146.603 166.226 146.409 166.243 146.16 166.492ZM150.808 174.793V181.367H149.347H147.886V174.793V168.219H149.347H150.808V174.793ZM155.855 177.051V181.367H154.328H152.8V177.051V172.734H154.328H155.855V177.051ZM145.894 178.312V181.367H144.367H142.84V178.312V175.258H144.367H145.894V178.312ZM168.854 185.588L166.015 188.481L165.979 185.697C165.952 183.559 165.983 182.889 166.112 182.806C166.205 182.747 167.499 182.698 168.987 182.697L171.693 182.695L168.854 185.588Z" fill="#00B4BA"/>
</g>
<defs>
<filter id="filter0_f_139_1104" x="0" y="0" width="316" height="316" filterUnits="userSpaceOnUse" color-interpolation-filters="sRGB">
<feFlood flood-opacity="0" result="BackgroundImageFix"/>
<feBlend mode="normal" in="SourceGraphic" in2="BackgroundImageFix" result="shape"/>
<feGaussianBlur stdDeviation="52" result="effect1_foregroundBlur_139_1104"/>
</filter>
<linearGradient id="paint0_linear_139_1104" x1="83" y1="110" x2="241" y2="110" gradientUnits="userSpaceOnUse">
<stop stop-color="#EEEFF9" stop-opacity="0"/>
<stop offset="0.498348" stop-color="#EEEFF9"/>
<stop offset="1" stop-color="#EEEFF9" stop-opacity="0"/>
</linearGradient>
<linearGradient id="paint1_linear_139_1104" x1="83" y1="134" x2="241" y2="134" gradientUnits="userSpaceOnUse">
<stop stop-color="#EEEFF9" stop-opacity="0"/>
<stop offset="0.498348" stop-color="#EEEFF9"/>
<stop offset="1" stop-color="#EEEFF9" stop-opacity="0"/>
</linearGradient>
<linearGradient id="paint2_linear_139_1104" x1="83" y1="182" x2="241" y2="182" gradientUnits="userSpaceOnUse">
<stop stop-color="#EEEFF9" stop-opacity="0"/>
<stop offset="0.498348" stop-color="#EEEFF9"/>
<stop offset="1" stop-color="#EEEFF9" stop-opacity="0"/>
</linearGradient>
<linearGradient id="paint3_linear_139_1104" x1="83" y1="206" x2="241" y2="206" gradientUnits="userSpaceOnUse">
<stop stop-color="#EEEFF9" stop-opacity="0"/>
<stop offset="0.498348" stop-color="#EEEFF9"/>
<stop offset="1" stop-color="#EEEFF9" stop-opacity="0"/>
</linearGradient>
<linearGradient id="paint4_linear_139_1104" x1="110" y1="83" x2="110" y2="241" gradientUnits="userSpaceOnUse">
<stop stop-color="#EEEFF9" stop-opacity="0"/>
<stop offset="0.498348" stop-color="#EEEFF9"/>
<stop offset="1" stop-color="#EEEFF9" stop-opacity="0"/>
</linearGradient>
<linearGradient id="paint5_linear_139_1104" x1="134" y1="83" x2="134" y2="241" gradientUnits="userSpaceOnUse">
<stop stop-color="#EEEFF9" stop-opacity="0"/>
<stop offset="0.498348" stop-color="#EEEFF9"/>
<stop offset="1" stop-color="#EEEFF9" stop-opacity="0"/>
</linearGradient>
<linearGradient id="paint6_linear_139_1104" x1="158" y1="158" x2="157" y2="158" gradientUnits="userSpaceOnUse">
<stop stop-color="#EEEFF9"/>
<stop offset="1" stop-color="#8D8D93"/>
</linearGradient>
<linearGradient id="paint7_linear_139_1104" x1="182" y1="83" x2="182" y2="241" gradientUnits="userSpaceOnUse">
<stop stop-color="#EEEFF9" stop-opacity="0"/>
<stop offset="0.498348" stop-color="#EEEFF9"/>
<stop offset="1" stop-color="#EEEFF9" stop-opacity="0"/>
</linearGradient>
<linearGradient id="paint8_linear_139_1104" x1="206" y1="83" x2="206" y2="241" gradientUnits="userSpaceOnUse">
<stop stop-color="#EEEFF9" stop-opacity="0"/>
<stop offset="0.498348" stop-color="#EEEFF9"/>
<stop offset="1" stop-color="#EEEFF9" stop-opacity="0"/>
</linearGradient>
<clipPath id="clip0_139_1104">
<rect width="68" height="68" fill="white" transform="translate(124 124)"/>
</clipPath>
</defs>
</svg>
