<svg width="316" height="316" viewBox="0 0 316 316" fill="none" xmlns="http://www.w3.org/2000/svg">
<line x1="83" y1="109.5" x2="233" y2="109.5" stroke="url(#paint0_linear_139_5028)"/>
<line x1="83" y1="133.5" x2="233" y2="133.5" stroke="url(#paint1_linear_139_5028)"/>
<line x1="83" y1="157.5" x2="233" y2="157.5" stroke="#EEEFF9"/>
<line x1="83" y1="181.5" x2="233" y2="181.5" stroke="url(#paint2_linear_139_5028)"/>
<line x1="83" y1="205.5" x2="233" y2="205.5" stroke="url(#paint3_linear_139_5028)"/>
<line x1="110.5" y1="83" x2="110.5" y2="233" stroke="url(#paint4_linear_139_5028)"/>
<line x1="134.5" y1="83" x2="134.5" y2="233" stroke="url(#paint5_linear_139_5028)"/>
<line x1="158.5" y1="83" x2="158.5" y2="233" stroke="url(#paint6_linear_139_5028)"/>
<line x1="182.5" y1="83" x2="182.5" y2="233" stroke="url(#paint7_linear_139_5028)"/>
<line x1="206.5" y1="83" x2="206.5" y2="233" stroke="url(#paint8_linear_139_5028)"/>
<g filter="url(#filter0_f_139_5028)">
<circle cx="158" cy="158" r="54" fill="#CCF0F1" fill-opacity="0.5"/>
</g>
<path fill-rule="evenodd" clip-rule="evenodd" d="M140.693 126.646C140.343 126.922 140.338 126.946 140.302 128.798L140.265 130.671L139.589 130.901C139.217 131.027 138.608 131.277 138.235 131.455L137.557 131.779L136.454 130.664C135.254 129.45 134.746 129.109 134.307 129.219C133.922 129.316 129.175 134.106 129.175 134.397C129.175 134.826 129.55 135.341 130.67 136.448L131.785 137.551L131.461 138.229C131.283 138.602 131.033 139.211 130.907 139.583L130.677 140.259L128.804 140.296C126.188 140.347 126.362 140.043 126.413 144.464C126.448 147.539 126.476 147.911 126.689 148.124C126.887 148.321 127.236 148.372 128.791 148.427L130.657 148.493L131.02 149.423C131.22 149.934 131.48 150.532 131.597 150.751L131.811 151.15L130.493 152.492C129.584 153.418 129.175 153.93 129.175 154.144C129.175 154.369 129.858 155.14 131.661 156.952C133.756 159.058 134.207 159.45 134.535 159.45C134.847 159.45 135.178 159.2 136.226 158.17L137.53 156.89L138.235 157.224C138.623 157.407 139.253 157.669 139.636 157.805L140.331 158.052V159.88C140.331 162.442 139.984 162.239 144.372 162.239H147.882L148.158 161.889C148.405 161.575 148.433 161.359 148.433 159.775V158.01L148.931 157.849C149.205 157.761 149.811 157.517 150.279 157.307L151.129 156.925L152.43 158.188C154.27 159.973 154.012 160.039 157.029 157.023C160.045 154.006 159.979 154.264 158.194 152.424L156.931 151.123L157.313 150.273C157.523 149.806 157.767 149.199 157.855 148.925L158.016 148.427H159.781C161.365 148.427 161.581 148.399 161.895 148.152L162.245 147.876V144.366C162.245 139.975 162.451 140.325 159.869 140.325H158.024L157.935 139.97C157.886 139.774 157.631 139.144 157.369 138.571L156.892 137.527L158.174 136.222C159.205 135.173 159.456 134.841 159.456 134.529C159.456 134.201 159.064 133.75 156.958 131.655C155.146 129.852 154.375 129.169 154.15 129.169C153.936 129.169 153.424 129.578 152.498 130.487L151.156 131.805L150.757 131.591C150.538 131.474 149.94 131.214 149.429 131.014L148.499 130.651L148.433 128.785C148.378 127.23 148.327 126.881 148.13 126.683C147.917 126.47 147.545 126.442 144.47 126.407C141.164 126.369 141.035 126.377 140.693 126.646ZM146.574 130.012C146.574 132.082 146.546 132.034 147.968 132.481C148.479 132.642 149.447 133.043 150.117 133.372C151.581 134.089 151.485 134.116 153.084 132.541L154.215 131.427L155.735 132.951L157.254 134.475L156.031 135.722C155.19 136.58 154.808 137.067 154.808 137.281C154.808 137.453 155.04 138.043 155.323 138.594C155.606 139.145 155.999 140.088 156.197 140.691C156.419 141.368 156.665 141.863 156.841 141.986C157.056 142.136 157.522 142.185 158.755 142.185H160.386V144.376V146.568H158.685C157.531 146.568 156.912 146.621 156.762 146.734C156.64 146.825 156.387 147.375 156.198 147.956C156.009 148.538 155.62 149.481 155.331 150.052C155.044 150.623 154.808 151.222 154.808 151.383C154.808 151.575 155.231 152.101 156.035 152.908L157.262 154.14L155.704 155.698L154.146 157.256L152.914 156.029C152.106 155.225 151.581 154.802 151.389 154.802C151.228 154.802 150.629 155.038 150.058 155.325C149.487 155.614 148.544 156.003 147.962 156.192C147.381 156.381 146.831 156.634 146.74 156.756C146.627 156.906 146.574 157.525 146.574 158.679V160.38H144.382H142.191V158.749C142.191 157.516 142.142 157.05 141.992 156.835C141.869 156.659 141.374 156.413 140.697 156.191C140.094 155.993 139.15 155.6 138.6 155.317C138.049 155.034 137.459 154.802 137.287 154.802C137.073 154.802 136.586 155.184 135.728 156.025L134.481 157.248L132.957 155.729L131.433 154.209L132.547 153.078C134.122 151.479 134.095 151.575 133.378 150.111C133.049 149.441 132.648 148.473 132.487 147.962C132.04 146.54 132.088 146.568 130.018 146.568H128.245V144.386V142.205L130.049 142.162C132.139 142.111 132.048 142.166 132.498 140.685C132.656 140.166 133.047 139.219 133.369 138.579C133.729 137.86 133.921 137.325 133.87 137.177C133.825 137.046 133.258 136.4 132.61 135.741L131.433 134.543L132.996 132.985L134.559 131.426L135.685 132.567C136.305 133.194 136.946 133.76 137.109 133.825C137.342 133.917 137.673 133.813 138.634 133.345C139.31 133.017 140.253 132.631 140.731 132.489C142.154 132.065 142.118 132.128 142.168 130.043L142.211 128.239H144.392H146.574V130.012ZM164.337 133.515C164.034 133.85 164.04 134.515 164.349 134.794C164.483 134.916 165.117 135.192 165.757 135.408C170.114 136.881 174.345 139.951 177.039 143.595L177.9 144.758L177.496 145.268C175.396 147.919 177.239 151.88 180.571 151.88C181.866 151.88 182.628 151.572 183.507 150.693C184.444 149.758 184.741 148.965 184.67 147.587C184.592 146.07 183.851 144.914 182.499 144.202C181.945 143.91 181.644 143.849 180.679 143.829L179.524 143.806L178.509 142.46C175.604 138.603 171.644 135.649 166.998 133.872C165.411 133.265 164.655 133.163 164.337 133.515ZM142.324 136.555C138.782 137.505 136.347 140.647 136.347 144.265C136.347 145.723 136.533 146.551 137.156 147.855C138.081 149.793 139.799 151.291 141.887 151.982C143.293 152.446 145.273 152.473 146.64 152.046C149.206 151.245 151.251 149.2 152.052 146.634C152.507 145.177 152.462 143.268 151.938 141.78C151.718 141.156 151.311 140.304 151.034 139.887C149.997 138.324 148.066 136.963 146.294 136.545C145.226 136.293 143.28 136.298 142.324 136.555ZM146.158 138.451C147.273 138.797 147.986 139.245 148.806 140.112C152.227 143.729 150.21 149.617 145.271 150.433C143.423 150.738 141.505 150.121 140.082 148.763C138.708 147.453 138.142 145.993 138.229 143.987C138.276 142.924 138.343 142.645 138.771 141.744C139.546 140.112 140.896 138.946 142.656 138.387C143.473 138.127 145.221 138.159 146.158 138.451ZM181.866 145.99C182.564 146.511 182.765 146.922 182.765 147.829C182.765 148.474 182.7 148.759 182.491 149.04C181.556 150.293 179.812 150.347 178.9 149.151C178.066 148.058 178.472 146.376 179.704 145.817C180.26 145.565 181.421 145.657 181.866 145.99ZM167.833 154.089C167.586 154.403 167.558 154.62 167.558 156.204V157.969L167.06 158.13C166.786 158.218 166.179 158.462 165.712 158.672L164.862 159.053L163.561 157.791C161.721 156.005 161.979 155.94 158.962 158.956C155.946 161.973 156.011 161.715 157.797 163.555L159.059 164.856L158.678 165.706C158.468 166.173 158.224 166.78 158.136 167.054L157.975 167.552H156.21C154.626 167.552 154.409 167.58 154.095 167.827L153.745 168.102V171.612C153.745 176.001 153.542 175.653 156.105 175.653H157.933L158.18 176.349C158.316 176.732 158.578 177.362 158.761 177.75L159.095 178.455L157.815 179.758C156.785 180.806 156.534 181.138 156.534 181.45C156.534 181.777 156.926 182.228 159.033 184.324C160.844 186.127 161.616 186.81 161.841 186.81C162.055 186.81 162.567 186.401 163.493 185.492L164.835 184.174L165.234 184.387C165.453 184.505 166.05 184.764 166.562 184.964L167.491 185.328L167.558 187.21C167.649 189.79 167.325 189.599 171.605 189.599C175.937 189.599 175.638 189.776 175.689 187.181L175.726 185.307L176.402 185.078C176.774 184.951 177.383 184.702 177.756 184.524L178.434 184.199L179.537 185.315C180.737 186.529 181.245 186.87 181.684 186.76C182.111 186.652 186.816 181.869 186.816 181.542C186.816 181.177 186.238 180.421 185.127 179.332L184.205 178.428L184.529 177.75C184.708 177.377 184.957 176.768 185.084 176.396L185.313 175.72L187.187 175.683C189.803 175.632 189.629 175.936 189.578 171.515C189.542 168.44 189.514 168.068 189.302 167.855C189.104 167.658 188.755 167.607 187.2 167.552L185.334 167.486L184.97 166.556C184.77 166.044 184.511 165.447 184.393 165.228L184.18 164.829L185.498 163.487C186.407 162.561 186.816 162.049 186.816 161.835C186.816 161.61 186.133 160.839 184.33 159.027C182.234 156.92 181.783 156.528 181.456 156.528C181.144 156.528 180.812 156.779 179.764 157.81L178.46 159.091L177.605 158.682C177.134 158.458 176.505 158.201 176.205 158.111L175.659 157.947V156.109C175.659 153.535 176.008 153.739 171.618 153.739H168.108L167.833 154.089ZM173.8 157.229C173.8 158.463 173.849 158.929 173.999 159.144C174.122 159.32 174.617 159.566 175.294 159.788C175.897 159.986 176.84 160.379 177.391 160.662C177.941 160.945 178.532 161.177 178.704 161.177C178.918 161.177 179.405 160.795 180.263 159.954L181.51 158.731L183.034 160.25L184.557 161.77L183.443 162.901C181.869 164.5 181.896 164.404 182.613 165.867C182.942 166.538 183.343 167.505 183.503 168.017C183.951 169.438 183.903 169.411 185.973 169.411H187.745V171.592V173.774L185.941 173.817C183.852 173.867 183.943 173.813 183.493 175.294C183.335 175.813 182.943 176.76 182.622 177.401C182.157 178.326 182.062 178.627 182.157 178.869C182.224 179.036 182.791 179.68 183.418 180.299L184.559 181.426L183 182.989L181.441 184.552L180.244 183.374C179.585 182.727 178.939 182.16 178.807 182.115C178.661 182.064 178.165 182.235 177.531 182.554C176.96 182.841 175.968 183.255 175.326 183.475C174.684 183.695 174.093 183.94 174.012 184.02C173.926 184.107 173.849 184.89 173.823 185.956L173.779 187.746L171.632 187.709L169.484 187.673L169.447 185.931C169.404 183.9 169.427 183.941 168.027 183.496C167.518 183.334 166.551 182.934 165.877 182.606C164.408 181.891 164.505 181.864 162.907 183.437L161.776 184.552L160.256 183.028L158.737 181.504L159.96 180.257C160.801 179.399 161.183 178.912 161.183 178.698C161.183 178.526 160.951 177.935 160.668 177.385C160.385 176.834 159.992 175.891 159.794 175.288C159.572 174.611 159.326 174.116 159.15 173.993C158.935 173.843 158.469 173.794 157.235 173.794H155.605V171.603V169.411H157.274C158.192 169.411 159.056 169.351 159.194 169.276C159.352 169.192 159.552 168.782 159.728 168.181C159.884 167.652 160.274 166.693 160.597 166.049C160.919 165.405 161.183 164.748 161.183 164.59C161.183 164.405 160.746 163.864 159.956 163.071L158.729 161.839L160.287 160.281L161.845 158.723L163.077 159.95C163.884 160.754 164.41 161.177 164.602 161.177C164.763 161.177 165.362 160.941 165.933 160.653C166.504 160.365 167.447 159.975 168.028 159.787C168.61 159.598 169.16 159.344 169.251 159.223C169.364 159.072 169.417 158.454 169.417 157.3V155.599H171.609H173.8V157.229ZM170.26 163.713C168.045 164.083 165.923 165.564 164.731 167.573C162.002 172.17 164.511 178.106 169.744 179.437C170.765 179.696 172.598 179.694 173.606 179.432C176.133 178.777 178.177 176.961 179.131 174.525C179.463 173.678 179.561 173.2 179.613 172.169C179.742 169.635 179.01 167.696 177.272 165.965C175.377 164.079 172.877 163.276 170.26 163.713ZM133.824 164.33C132.991 164.624 131.812 165.827 131.523 166.679C130.828 168.721 131.67 170.814 133.595 171.831C134.036 172.064 134.402 172.132 135.311 172.15L136.467 172.172L137.5 173.543C139.234 175.845 141.644 178.078 144.116 179.672C146.231 181.036 150.025 182.686 151.056 182.691C151.754 182.694 152.159 181.653 151.642 181.185C151.508 181.063 150.874 180.787 150.234 180.57C145.7 179.038 141.151 175.629 138.503 171.781L138.1 171.195L138.483 170.735C140.656 168.124 138.74 164.072 135.351 164.109C134.84 164.115 134.152 164.215 133.824 164.33ZM172.752 165.563C173.852 165.771 175.056 166.401 175.909 167.215C177.283 168.526 177.849 169.986 177.761 171.992C177.715 173.055 177.647 173.334 177.22 174.234C176.569 175.604 175.61 176.564 174.24 177.214C173.34 177.641 173.061 177.709 171.998 177.755C170.062 177.84 168.825 177.393 167.436 176.107C165.951 174.733 165.215 172.625 165.546 170.697C166.139 167.233 169.382 164.923 172.752 165.563ZM136.651 166.392C137.868 167.321 137.825 169.057 136.561 170.001C136.281 170.21 135.996 170.275 135.351 170.275C134.452 170.275 134.032 170.072 133.529 169.4C132.776 168.39 133.243 166.669 134.415 166.138C135.039 165.854 136.104 165.976 136.651 166.392Z" fill="#00B4BA"/>
<defs>
<filter id="filter0_f_139_5028" x="0" y="0" width="316" height="316" filterUnits="userSpaceOnUse" color-interpolation-filters="sRGB">
<feFlood flood-opacity="0" result="BackgroundImageFix"/>
<feBlend mode="normal" in="SourceGraphic" in2="BackgroundImageFix" result="shape"/>
<feGaussianBlur stdDeviation="52" result="effect1_foregroundBlur_139_5028"/>
</filter>
<linearGradient id="paint0_linear_139_5028" x1="83" y1="110" x2="241" y2="110" gradientUnits="userSpaceOnUse">
<stop stop-color="#EEEFF9" stop-opacity="0"/>
<stop offset="0.498348" stop-color="#EEEFF9"/>
<stop offset="1" stop-color="#EEEFF9" stop-opacity="0"/>
</linearGradient>
<linearGradient id="paint1_linear_139_5028" x1="83" y1="134" x2="241" y2="134" gradientUnits="userSpaceOnUse">
<stop stop-color="#EEEFF9" stop-opacity="0"/>
<stop offset="0.498348" stop-color="#EEEFF9"/>
<stop offset="1" stop-color="#EEEFF9" stop-opacity="0"/>
</linearGradient>
<linearGradient id="paint2_linear_139_5028" x1="83" y1="182" x2="241" y2="182" gradientUnits="userSpaceOnUse">
<stop stop-color="#EEEFF9" stop-opacity="0"/>
<stop offset="0.498348" stop-color="#EEEFF9"/>
<stop offset="1" stop-color="#EEEFF9" stop-opacity="0"/>
</linearGradient>
<linearGradient id="paint3_linear_139_5028" x1="83" y1="206" x2="241" y2="206" gradientUnits="userSpaceOnUse">
<stop stop-color="#EEEFF9" stop-opacity="0"/>
<stop offset="0.498348" stop-color="#EEEFF9"/>
<stop offset="1" stop-color="#EEEFF9" stop-opacity="0"/>
</linearGradient>
<linearGradient id="paint4_linear_139_5028" x1="110" y1="83" x2="110" y2="241" gradientUnits="userSpaceOnUse">
<stop stop-color="#EEEFF9" stop-opacity="0"/>
<stop offset="0.498348" stop-color="#EEEFF9"/>
<stop offset="1" stop-color="#EEEFF9" stop-opacity="0"/>
</linearGradient>
<linearGradient id="paint5_linear_139_5028" x1="134" y1="83" x2="134" y2="241" gradientUnits="userSpaceOnUse">
<stop stop-color="#EEEFF9" stop-opacity="0"/>
<stop offset="0.498348" stop-color="#EEEFF9"/>
<stop offset="1" stop-color="#EEEFF9" stop-opacity="0"/>
</linearGradient>
<linearGradient id="paint6_linear_139_5028" x1="158" y1="158" x2="157" y2="158" gradientUnits="userSpaceOnUse">
<stop stop-color="#EEEFF9"/>
<stop offset="1" stop-color="#8D8D93"/>
</linearGradient>
<linearGradient id="paint7_linear_139_5028" x1="182" y1="83" x2="182" y2="241" gradientUnits="userSpaceOnUse">
<stop stop-color="#EEEFF9" stop-opacity="0"/>
<stop offset="0.498348" stop-color="#EEEFF9"/>
<stop offset="1" stop-color="#EEEFF9" stop-opacity="0"/>
</linearGradient>
<linearGradient id="paint8_linear_139_5028" x1="206" y1="83" x2="206" y2="241" gradientUnits="userSpaceOnUse">
<stop stop-color="#EEEFF9" stop-opacity="0"/>
<stop offset="0.498348" stop-color="#EEEFF9"/>
<stop offset="1" stop-color="#EEEFF9" stop-opacity="0"/>
</linearGradient>
</defs>
</svg>
