<svg width="316" height="316" viewBox="0 0 316 316" fill="none" xmlns="http://www.w3.org/2000/svg">
<line x1="83" y1="109.5" x2="233" y2="109.5" stroke="url(#paint0_linear_139_4996)"/>
<line x1="83" y1="133.5" x2="233" y2="133.5" stroke="url(#paint1_linear_139_4996)"/>
<line x1="83" y1="157.5" x2="233" y2="157.5" stroke="#EEEFF9"/>
<line x1="83" y1="181.5" x2="233" y2="181.5" stroke="url(#paint2_linear_139_4996)"/>
<line x1="83" y1="205.5" x2="233" y2="205.5" stroke="url(#paint3_linear_139_4996)"/>
<line x1="110.5" y1="83" x2="110.5" y2="233" stroke="url(#paint4_linear_139_4996)"/>
<line x1="134.5" y1="83" x2="134.5" y2="233" stroke="url(#paint5_linear_139_4996)"/>
<line x1="158.5" y1="83" x2="158.5" y2="233" stroke="url(#paint6_linear_139_4996)"/>
<line x1="182.5" y1="83" x2="182.5" y2="233" stroke="url(#paint7_linear_139_4996)"/>
<line x1="206.5" y1="83" x2="206.5" y2="233" stroke="url(#paint8_linear_139_4996)"/>
<g filter="url(#filter0_f_139_4996)">
<circle cx="158" cy="158" r="54" fill="#CCF0F1" fill-opacity="0.5"/>
</g>
<path fill-rule="evenodd" clip-rule="evenodd" d="M172.704 129.278C172.429 129.347 171.968 129.525 171.679 129.672C170.639 130.202 130.824 153.225 130.306 153.596C129.614 154.091 129.108 154.737 128.676 155.676C128.202 156.709 128.11 158.371 128.469 159.423C128.729 160.183 132.872 167.499 133.339 168.023C133.656 168.377 134.076 168.4 134.853 168.103C135.168 167.983 135.459 167.918 135.5 167.959C135.541 168 135.607 168.278 135.647 168.575C135.874 170.27 134.271 172.04 132.509 172.04C132.235 172.04 131.97 172.157 131.753 172.373L131.42 172.707L131.461 177.793L131.501 182.879L131.997 183.882C132.595 185.091 133.364 185.844 134.598 186.428L135.486 186.849H160.122H184.759L185.646 186.428C186.88 185.844 187.65 185.091 188.247 183.882L188.743 182.879L188.784 177.793L188.824 172.707L188.491 172.373C188.275 172.157 188.009 172.04 187.735 172.04C186.102 172.04 184.56 170.492 184.56 168.853C184.56 167.213 186.102 165.665 187.735 165.665C188.007 165.665 188.274 165.549 188.484 165.339C188.797 165.026 188.81 164.942 188.814 163.247L188.818 161.482L189.675 160.904C190.651 160.246 191.475 159.141 191.797 158.057C192.064 157.157 192.046 155.669 191.757 154.841C191.506 154.121 187.341 146.797 186.905 146.308C186.576 145.939 186.16 145.931 185.256 146.275C184.042 146.736 182.958 146.567 182.031 145.774C181.242 145.099 180.917 144.393 180.917 143.353C180.916 142.264 181.153 141.787 182.18 140.814C182.758 140.266 182.966 139.975 182.966 139.714C182.966 139.362 179.585 133.33 178.375 131.523C177.759 130.604 177.006 129.974 175.974 129.518C175.263 129.203 173.509 129.074 172.704 129.278ZM175.329 131.582C175.694 131.755 176.123 132.038 176.281 132.212C176.552 132.51 180.443 139.149 180.443 139.314C180.443 139.356 180.241 139.639 179.994 139.944C179.352 140.735 179.019 141.461 178.832 142.471C178.406 144.787 179.655 147.132 181.867 148.167C182.626 148.523 182.916 148.585 183.825 148.591C184.412 148.595 185.082 148.556 185.315 148.504L185.738 148.41L187.607 151.645C188.635 153.424 189.565 155.093 189.674 155.354C190.124 156.43 189.799 158.016 188.97 158.79C188.772 158.975 186.459 160.366 183.829 161.881C181.2 163.395 178.857 164.75 178.623 164.891L178.197 165.148L177.927 164.618C177.453 163.689 176.668 163.401 176.086 163.942C175.619 164.378 175.592 164.784 175.984 165.486C176.265 165.989 176.3 166.142 176.164 166.267C175.913 166.495 148.166 182.486 147.487 182.795C146.379 183.297 144.751 182.985 143.963 182.118C143.7 181.828 139.802 175.183 139.802 175.024C139.802 174.985 140.037 174.657 140.323 174.294C142.446 171.609 141.583 167.754 138.521 166.24C137.623 165.797 137.414 165.746 136.438 165.739C135.841 165.735 135.162 165.774 134.93 165.826L134.507 165.921L132.638 162.686C131.61 160.906 130.68 159.237 130.571 158.976C130.121 157.9 130.446 156.315 131.274 155.54C131.472 155.355 133.965 153.86 136.814 152.219C141.606 149.458 155.305 141.551 159.223 139.284C160.152 138.746 160.939 138.306 160.971 138.306C161.003 138.306 160.965 138.475 160.887 138.682C160.766 139.002 160.801 139.16 161.125 139.756C161.78 140.959 162.483 141.27 163.116 140.636C163.559 140.193 163.53 139.703 163.01 138.831C162.7 138.313 162.457 138.068 162.157 137.971C161.747 137.837 161.842 137.774 166.541 135.051C172.757 131.449 173.117 131.266 173.982 131.268C174.421 131.269 174.902 131.381 175.329 131.582ZM169.766 135.636C167.655 136.861 165.847 137.974 165.748 138.11C165.649 138.245 165.568 138.496 165.568 138.667C165.568 139.011 167.712 142.81 168.109 143.169C168.247 143.294 168.524 143.397 168.726 143.397C169.097 143.397 176.407 139.287 176.883 138.811C177.337 138.357 177.183 137.837 175.98 135.759C174.799 133.72 174.51 133.385 173.938 133.401C173.754 133.405 171.876 134.411 169.766 135.636ZM174.124 136.787C174.415 137.284 174.584 137.708 174.517 137.772C174.336 137.946 169.308 140.83 169.191 140.827C169.027 140.823 168.036 139.055 168.17 139.006C168.236 138.982 169.456 138.282 170.88 137.449C172.304 136.617 173.502 135.931 173.542 135.926C173.581 135.92 173.843 136.308 174.124 136.787ZM163.473 141.715C163.38 141.752 163.212 141.962 163.099 142.18C162.861 142.639 162.945 142.99 163.5 143.87C163.919 144.533 164.332 144.727 164.901 144.529C165.842 144.201 165.767 143.088 164.726 141.925C164.47 141.639 163.9 141.543 163.473 141.715ZM165.9 145.317C165.523 145.395 165.207 145.708 165.108 146.1C165.012 146.484 165.544 147.65 165.991 148.034C166.379 148.368 167.054 148.332 167.404 147.959C167.799 147.539 167.766 147.033 167.291 146.203C166.881 145.487 166.44 145.206 165.9 145.317ZM147.143 148.742C145.651 149.521 145.379 149.773 145.383 150.382C145.385 150.81 145.684 151.197 148.454 154.349C150.141 156.27 151.499 157.86 151.472 157.882C151.252 158.064 148.92 159.582 148.774 159.638C148.671 159.677 148.149 159.415 147.614 159.055C146.142 158.063 145.822 157.929 144.906 157.92C143.604 157.908 142.06 158.814 142.06 159.591C142.06 159.737 142.484 160.597 143.002 161.503L143.944 163.15L143.301 163.881C142.177 165.157 141.885 165.613 141.972 165.953C142.113 166.501 143.249 168.311 143.594 168.537C143.907 168.743 144.018 168.738 145.351 168.469C147.014 168.133 146.711 167.949 147.946 170.048C148.982 171.808 149.209 171.947 150.232 171.446C151.099 171.022 151.967 170.075 152.169 169.332C152.265 168.98 152.287 168.255 152.23 167.294L152.143 165.802L153.67 165.042C154.51 164.624 155.219 164.309 155.246 164.342C155.273 164.376 155.939 166.316 156.725 168.653C158.529 174.014 158.548 174.036 160.431 172.952C162.192 171.938 162.821 171.092 162.836 169.716C162.841 169.278 162.729 167.09 162.588 164.855L162.331 160.79L163.146 160.007C163.816 159.363 164.203 158.787 165.318 156.771C166.804 154.085 166.902 153.733 166.313 153.226C165.97 152.931 165.84 152.913 163.8 152.882C160.257 152.827 159.79 152.855 158.912 153.175L158.104 153.47L154.299 150.941C152.206 149.55 150.325 148.349 150.119 148.273C149.914 148.196 149.422 148.134 149.027 148.134C148.432 148.134 148.108 148.238 147.143 148.742ZM167.659 149.194C167.119 149.619 167.096 150.033 167.565 150.913C168.148 152.006 168.866 152.285 169.491 151.659C169.926 151.225 169.904 150.747 169.412 149.888C168.867 148.937 168.281 148.705 167.659 149.194ZM152.682 152.411C154.473 153.595 155.99 154.606 156.052 154.657C156.115 154.708 155.522 155.182 154.734 155.71C153.349 156.639 153.295 156.663 153.093 156.416C152.978 156.275 151.823 154.955 150.527 153.482C149.23 152.009 148.169 150.744 148.169 150.671C148.169 150.467 148.59 150.267 149.03 150.263C149.322 150.26 150.274 150.819 152.682 152.411ZM184.02 151.971C181.896 153.11 176.73 156.183 176.491 156.449C176.119 156.863 176.111 157.291 176.468 157.745C176.987 158.404 177.29 158.292 181.462 155.896C183.567 154.686 185.365 153.599 185.456 153.48C185.712 153.146 185.659 152.42 185.357 152.118C185.211 151.972 185.036 151.853 184.969 151.853C184.902 151.853 184.767 151.822 184.67 151.785C184.573 151.748 184.28 151.832 184.02 151.971ZM169.711 152.919C169.229 153.368 169.214 153.763 169.651 154.536C170.325 155.728 170.999 155.983 171.68 155.302C172.037 154.946 172.01 154.397 171.599 153.662C171.032 152.647 170.309 152.362 169.711 152.919ZM163.792 155.091C163.893 155.178 161.93 158.351 161.635 158.579C161.312 158.828 148.006 165.532 147.835 165.532C147.684 165.532 146.696 163.629 146.809 163.557C146.882 163.511 149.742 161.608 153.166 159.328C157.178 156.656 159.581 155.137 159.923 155.056C160.319 154.962 163.678 154.993 163.792 155.091ZM182.568 157.7C180.413 158.944 178.575 160.061 178.484 160.182C178.04 160.773 178.579 161.814 179.328 161.814C179.694 161.814 186.866 157.79 187.448 157.259C188.061 156.7 187.605 155.438 186.79 155.439C186.623 155.439 184.722 156.456 182.568 157.7ZM171.854 156.564C171.381 156.896 171.354 157.38 171.764 158.191C172.188 159.028 172.501 159.29 173.078 159.29C173.592 159.29 174.068 158.815 174.068 158.301C174.068 157.915 173.695 157.191 173.226 156.667C172.914 156.318 172.275 156.27 171.854 156.564ZM145.909 160.494L146.744 161.034L146.268 161.357C146.007 161.535 145.735 161.681 145.665 161.681C145.53 161.681 144.716 160.316 144.716 160.089C144.716 159.834 145.076 159.956 145.909 160.494ZM174.262 160.081C173.366 160.444 173.439 161.628 174.423 162.69C175.033 163.348 176.193 162.909 176.193 162.02C176.193 161.507 175.477 160.3 175.061 160.11C174.671 159.932 174.631 159.931 174.262 160.081ZM160.258 162.046C160.26 162.174 160.374 163.979 160.513 166.059C160.725 169.25 160.736 169.892 160.586 170.183C160.37 170.6 159.746 170.932 159.656 170.678C159.114 169.148 157.2 163.464 157.2 163.384C157.2 163.284 159.937 161.835 160.155 161.82C160.21 161.817 160.256 161.918 160.258 162.046ZM186.685 163.208C186.685 163.512 186.622 163.673 186.503 163.673C186.404 163.673 185.903 163.883 185.39 164.139C184.258 164.706 183.49 165.503 182.921 166.704C182.541 167.506 182.501 167.712 182.501 168.853C182.501 169.994 182.541 170.199 182.921 171.002C183.49 172.203 184.258 173 185.39 173.566C185.903 173.822 186.404 174.032 186.503 174.032C186.751 174.032 186.769 181.75 186.523 182.583C186.308 183.313 185.207 184.413 184.478 184.629C184.084 184.745 182.241 184.79 177.87 184.79H171.81V184.054C171.81 183.167 171.425 182.665 170.747 182.665C170.069 182.665 169.685 183.167 169.685 184.054V184.79H159.032H148.38L151.03 183.271C152.488 182.436 157.289 179.667 161.7 177.118L169.719 172.485L170.028 172.794C170.742 173.508 171.81 172.951 171.81 171.864V171.277L179.206 167.01C183.273 164.663 186.62 162.743 186.643 162.743C186.666 162.743 186.685 162.952 186.685 163.208ZM145.374 165.618C145.689 166.152 145.642 166.258 145.041 166.369C144.735 166.426 144.598 166.384 144.48 166.194C144.35 165.986 144.38 165.876 144.664 165.539C144.852 165.316 145.024 165.134 145.047 165.134C145.07 165.134 145.217 165.352 145.374 165.618ZM150.159 167.898C150.157 168.686 150.007 169.29 149.856 169.114C149.827 169.08 149.591 168.687 149.333 168.241L148.864 167.429L149.413 167.161C149.715 167.013 150.007 166.918 150.062 166.95C150.116 166.983 150.16 167.409 150.159 167.898ZM138.433 168.753C139.103 169.46 139.328 170.018 139.328 170.978C139.328 172.066 139.091 172.543 138.065 173.516C137.488 174.063 137.278 174.356 137.278 174.615C137.278 175.095 141.662 182.69 142.375 183.445C142.676 183.765 143.189 184.198 143.513 184.408L144.104 184.79H140.209C137.538 184.79 136.141 184.739 135.767 184.629C135.037 184.413 133.937 183.313 133.721 182.583C133.475 181.75 133.493 174.032 133.741 174.032C133.841 174.032 134.342 173.822 134.854 173.566C136.53 172.728 137.613 171.13 137.769 169.264C137.813 168.745 137.888 168.321 137.936 168.321C137.984 168.321 138.208 168.516 138.433 168.753ZM170.011 174.491C169.726 174.776 169.685 174.936 169.685 175.759C169.685 176.582 169.726 176.742 170.011 177.027C170.216 177.232 170.489 177.353 170.747 177.353C171.006 177.353 171.278 177.232 171.484 177.027C171.769 176.742 171.81 176.582 171.81 175.759C171.81 174.936 171.769 174.776 171.484 174.491C171.278 174.286 171.006 174.165 170.747 174.165C170.489 174.165 170.216 174.286 170.011 174.491ZM175.323 176.616C175.118 176.822 174.997 177.094 174.997 177.353C174.997 177.611 175.118 177.884 175.323 178.089L175.649 178.415H179.778H183.908L184.234 178.089C184.439 177.884 184.56 177.611 184.56 177.353C184.56 177.094 184.439 176.822 184.234 176.616L183.908 176.29H179.778H175.649L175.323 176.616ZM170.011 178.741C169.726 179.026 169.685 179.186 169.685 180.009C169.685 180.832 169.726 180.992 170.011 181.277C170.216 181.482 170.489 181.603 170.747 181.603C171.006 181.603 171.278 181.482 171.484 181.277C171.769 180.992 171.81 180.832 171.81 180.009C171.81 179.186 171.769 179.026 171.484 178.741C171.278 178.536 171.006 178.415 170.747 178.415C170.489 178.415 170.216 178.536 170.011 178.741ZM175.323 180.866C175.118 181.072 174.997 181.344 174.997 181.603C174.997 181.861 175.118 182.134 175.323 182.339L175.649 182.665H179.778H183.908L184.234 182.339C184.439 182.134 184.56 181.861 184.56 181.603C184.56 181.344 184.439 181.072 184.234 180.866L183.908 180.54H179.778H175.649L175.323 180.866Z" fill="#00B4BA"/>
<defs>
<filter id="filter0_f_139_4996" x="0" y="0" width="316" height="316" filterUnits="userSpaceOnUse" color-interpolation-filters="sRGB">
<feFlood flood-opacity="0" result="BackgroundImageFix"/>
<feBlend mode="normal" in="SourceGraphic" in2="BackgroundImageFix" result="shape"/>
<feGaussianBlur stdDeviation="52" result="effect1_foregroundBlur_139_4996"/>
</filter>
<linearGradient id="paint0_linear_139_4996" x1="83" y1="110" x2="241" y2="110" gradientUnits="userSpaceOnUse">
<stop stop-color="#EEEFF9" stop-opacity="0"/>
<stop offset="0.498348" stop-color="#EEEFF9"/>
<stop offset="1" stop-color="#EEEFF9" stop-opacity="0"/>
</linearGradient>
<linearGradient id="paint1_linear_139_4996" x1="83" y1="134" x2="241" y2="134" gradientUnits="userSpaceOnUse">
<stop stop-color="#EEEFF9" stop-opacity="0"/>
<stop offset="0.498348" stop-color="#EEEFF9"/>
<stop offset="1" stop-color="#EEEFF9" stop-opacity="0"/>
</linearGradient>
<linearGradient id="paint2_linear_139_4996" x1="83" y1="182" x2="241" y2="182" gradientUnits="userSpaceOnUse">
<stop stop-color="#EEEFF9" stop-opacity="0"/>
<stop offset="0.498348" stop-color="#EEEFF9"/>
<stop offset="1" stop-color="#EEEFF9" stop-opacity="0"/>
</linearGradient>
<linearGradient id="paint3_linear_139_4996" x1="83" y1="206" x2="241" y2="206" gradientUnits="userSpaceOnUse">
<stop stop-color="#EEEFF9" stop-opacity="0"/>
<stop offset="0.498348" stop-color="#EEEFF9"/>
<stop offset="1" stop-color="#EEEFF9" stop-opacity="0"/>
</linearGradient>
<linearGradient id="paint4_linear_139_4996" x1="110" y1="83" x2="110" y2="241" gradientUnits="userSpaceOnUse">
<stop stop-color="#EEEFF9" stop-opacity="0"/>
<stop offset="0.498348" stop-color="#EEEFF9"/>
<stop offset="1" stop-color="#EEEFF9" stop-opacity="0"/>
</linearGradient>
<linearGradient id="paint5_linear_139_4996" x1="134" y1="83" x2="134" y2="241" gradientUnits="userSpaceOnUse">
<stop stop-color="#EEEFF9" stop-opacity="0"/>
<stop offset="0.498348" stop-color="#EEEFF9"/>
<stop offset="1" stop-color="#EEEFF9" stop-opacity="0"/>
</linearGradient>
<linearGradient id="paint6_linear_139_4996" x1="158" y1="158" x2="157" y2="158" gradientUnits="userSpaceOnUse">
<stop stop-color="#EEEFF9"/>
<stop offset="1" stop-color="#8D8D93"/>
</linearGradient>
<linearGradient id="paint7_linear_139_4996" x1="182" y1="83" x2="182" y2="241" gradientUnits="userSpaceOnUse">
<stop stop-color="#EEEFF9" stop-opacity="0"/>
<stop offset="0.498348" stop-color="#EEEFF9"/>
<stop offset="1" stop-color="#EEEFF9" stop-opacity="0"/>
</linearGradient>
<linearGradient id="paint8_linear_139_4996" x1="206" y1="83" x2="206" y2="241" gradientUnits="userSpaceOnUse">
<stop stop-color="#EEEFF9" stop-opacity="0"/>
<stop offset="0.498348" stop-color="#EEEFF9"/>
<stop offset="1" stop-color="#EEEFF9" stop-opacity="0"/>
</linearGradient>
</defs>
</svg>
